<?xml version="1.0" encoding="UTF-8" standalone="no"?>
<svg
   xmlns:dc="http://purl.org/dc/elements/1.1/"
   xmlns:cc="http://creativecommons.org/ns#"
   xmlns:rdf="http://www.w3.org/1999/02/22-rdf-syntax-ns#"
   xmlns:svg="http://www.w3.org/2000/svg"
   xmlns="http://www.w3.org/2000/svg"
   xmlns:sodipodi="http://sodipodi.sourceforge.net/DTD/sodipodi-0.dtd"
   xmlns:inkscape="http://www.inkscape.org/namespaces/inkscape"
   width="190.11264mm"
   height="190.11264mm"
   viewBox="0 0 190.11264 190.11264"
   version="1.1"
   id="svg8"
   inkscape:version="1.0.1 (3bc2e813f5, 2020-09-07)"
   sodipodi:docname="gut_logo_vector.svg"
   inkscape:export-filename="C:\Users\Hen\Desktop\GUT_logo\gut_logo.png"
   inkscape:export-xdpi="136.81152"
   inkscape:export-ydpi="136.81152">
  <defs
     id="defs2" />
  <sodipodi:namedview
     id="base"
     pagecolor="#323232"
     bordercolor="#666666"
     borderopacity="1.0"
     inkscape:pageopacity="0"
     inkscape:pageshadow="2"
     inkscape:zoom="1.4"
     inkscape:cx="391.68397"
     inkscape:cy="385.05953"
     inkscape:document-units="mm"
     inkscape:current-layer="layer1"
     inkscape:document-rotation="0"
     showgrid="false"
     inkscape:pagecheckerboard="false"
     showborder="true"
     borderlayer="false"
     inkscape:showpageshadow="false"
     inkscape:window-width="2560"
     inkscape:window-height="1411"
     inkscape:window-x="-9"
     inkscape:window-y="-9"
     inkscape:window-maximized="1"
     inkscape:snap-global="false" />
  <metadata
     id="metadata5">
    <rdf:RDF>
      <cc:Work
         rdf:about="">
        <dc:format>image/svg+xml</dc:format>
        <dc:type
           rdf:resource="http://purl.org/dc/dcmitype/StillImage" />
        <dc:title />
      </cc:Work>
    </rdf:RDF>
  </metadata>
  <g
     inkscape:label="main"
     inkscape:groupmode="layer"
     id="layer1"
     transform="translate(171.78549,-11.343979)">
    <path
       id="gray"
       style="color:#000000;font-style:normal;font-variant:normal;font-weight:normal;font-stretch:normal;font-size:medium;line-height:normal;font-family:sans-serif;font-variant-ligatures:normal;font-variant-position:normal;font-variant-caps:normal;font-variant-numeric:normal;font-variant-alternates:normal;font-variant-east-asian:normal;font-feature-settings:normal;font-variation-settings:normal;text-indent:0;text-align:start;text-decoration:none;text-decoration-line:none;text-decoration-style:solid;text-decoration-color:#000000;letter-spacing:normal;word-spacing:normal;text-transform:none;writing-mode:lr-tb;direction:ltr;text-orientation:mixed;dominant-baseline:auto;baseline-shift:baseline;text-anchor:start;white-space:normal;shape-padding:0;shape-margin:0;inline-size:0;clip-rule:nonzero;display:inline;overflow:visible;visibility:visible;isolation:auto;mix-blend-mode:normal;color-interpolation:sRGB;color-interpolation-filters:linearRGB;solid-color:#000000;solid-opacity:1;vector-effect:none;fill:#403f40;fill-opacity:1;fill-rule:nonzero;stroke:none;stroke-width:15.1181;stroke-linecap:butt;stroke-linejoin:round;stroke-miterlimit:4;stroke-dasharray:none;stroke-dashoffset:0;stroke-opacity:1;color-rendering:auto;image-rendering:auto;shape-rendering:auto;text-rendering:auto;enable-background:accumulate;stop-color:#000000"
       d="M 363.65039,45.783203 C 284.87643,45.601742 194.43567,81.811294 143.41016,141.24414 129.05738,157.96183 117.87809,173.58353 109.05469,187.74219 78.680446,205.00382 31.396009,236.48544 7.6640625,269.95508 a 7.5598109,7.5598109 0 0 0 8.7031255,11.49414 c 0,0 4.383582,-1.63533 14.925781,-2.64258 9.087042,-0.86821 23.196968,-0.65792 40.689453,1.56445 C 59.7524,328.88388 57.591458,388.6415 84.398438,464.88867 113.43277,547.47124 203.69188,628.22789 294.50977,645.30273 c 22.12627,4.16001 41.64962,6.04411 58.57812,6.56055 15.55105,7.643 37.48069,15.59092 61.28906,22.68555 30.10433,8.97074 62.69997,16.28613 87.67383,18.18164 a 7.5598109,7.5598109 0 0 0 4.32617,-14.09961 c 0,0 -29.11784,-17.47207 -52.26367,-42.1582 47.22811,-14.03328 98.77821,-41.98325 150.1836,-101.89844 57.00033,-66.43623 81.80152,-184.97485 51.17968,-272.16406 -7.4833,-21.3071 -15.63351,-39.20774 -23.67383,-54.1543 -1.23485,-16.29524 -5.08756,-36.43917 -8.14257,-57.71875 -3.90043,-27.16941 -6.44309,-55.789043 -1.83789,-76.941407 a 7.5598109,7.5598109 0 0 0 -13.14063,-6.509765 c 0,0 -23.73135,28.43348 -39.24219,62.767582 C 533.60126,95.460964 483.2595,64.231965 404.69922,49.488281 c -10.75436,-2.018294 -21.96531,-3.199218 -33.46289,-3.574219 -2.5151,-0.08203 -5.04484,-0.125005 -7.58594,-0.130859 z"
       inkscape:label="gray"
       transform="matrix(0.26458333,0,0,0.26458333,-171.78549,11.343979)" />
    <path
       id="red"
       style="color:#000000;font-style:normal;font-variant:normal;font-weight:normal;font-stretch:normal;font-size:medium;line-height:normal;font-family:sans-serif;font-variant-ligatures:normal;font-variant-position:normal;font-variant-caps:normal;font-variant-numeric:normal;font-variant-alternates:normal;font-variant-east-asian:normal;font-feature-settings:normal;font-variation-settings:normal;text-indent:0;text-align:start;text-decoration:none;text-decoration-line:none;text-decoration-style:solid;text-decoration-color:#000000;letter-spacing:normal;word-spacing:normal;text-transform:none;writing-mode:lr-tb;direction:ltr;text-orientation:mixed;dominant-baseline:auto;baseline-shift:baseline;text-anchor:start;white-space:normal;shape-padding:0;shape-margin:0;inline-size:0;clip-rule:nonzero;display:inline;overflow:visible;visibility:visible;isolation:auto;mix-blend-mode:normal;color-interpolation:sRGB;color-interpolation-filters:linearRGB;solid-color:#000000;solid-opacity:1;vector-effect:none;fill:#fe1f00;fill-opacity:1;fill-rule:nonzero;stroke:none;stroke-width:15.1181;stroke-linecap:butt;stroke-linejoin:round;stroke-miterlimit:4;stroke-dasharray:none;stroke-dashoffset:0;stroke-opacity:1;color-rendering:auto;image-rendering:auto;shape-rendering:auto;text-rendering:auto;enable-background:accumulate;stop-color:#000000"
       d="m 363.71484,61.0625 c -73.91412,0.279995 -161.68174,35.110069 -208.83203,90.0293 -6.90009,8.03703 -12.94576,15.75864 -18.4082,23.19531 25.81527,-10.98688 45.26012,-15.62078 59.52734,-17.10547 0.33804,-0.0372 0.65839,-0.0621 0.99024,-0.0957 0.56787,-0.0542 1.15004,-0.1177 1.70117,-0.16211 1.10048,-0.0928 2.17478,-0.17088 3.20508,-0.22266 4.34974,-0.21857 8.11924,-0.12404 11.34961,0.15039 0.37954,0.0319 0.72707,0.0747 1.09179,0.11133 0.39942,0.0406 0.81554,0.0752 1.19727,0.12109 2.22943,0.2656 4.15969,0.61505 5.80469,0.99805 4.36834,1.01707 7.35156,2.62891 7.35156,2.62891 a 7.559811,7.559811 0 0 1 -0.36914,13.27148 c -12.10969,6.14593 -18.63243,17.09218 -21.66211,30.08985 7.59291,4.0298 15.36552,8.57889 23.10742,13.40234 l 0.21094,0.13086 0.0996,-0.0879 c 2.36349,-1.94369 5.1728,-4.15956 9.15234,-7.20508 6.25285,-4.78536 10.99532,-7.98283 17.61524,-12.05078 -1.1246,-9.91217 -2.02013,-21.64623 -2.50391,-34.47266 l -0.14844,-3.9375 c -0.19755,-5.24587 2.74369,-10.10826 7.48242,-12.36718 l 3.22266,-1.53516 c 12.56493,-5.98912 25.96352,-10.86101 40.91016,-14.92969 2.66052,-0.72423 6.09053,-1.58344 8.99804,-2.2793 1.45372,-0.34793 2.75619,-0.65158 3.82032,-0.88281 0.53204,-0.11558 0.97827,-0.2098 1.52343,-0.30859 0.27258,-0.0494 0.52902,-0.10019 1.12891,-0.16992 0.29998,-0.0349 0.6302,-0.0904 1.54687,-0.0938 0.45827,-0.002 1.03132,-0.0255 2.28321,0.1875 0.626,0.10647 1.43184,0.25639 2.67383,0.75195 0.62109,0.24777 1.3582,0.58637 2.22851,1.14453 0.86982,0.55783 2.9023,2.52875 2.9043,2.53125 l 0.002,0.002 c 2.08267,2.4394 1.07839,1.45454 1.15625,1.57813 0.0771,0.12374 0.11833,0.18468 0.15235,0.24609 0.0745,0.1228 0.13282,0.22305 0.20312,0.3418 0.14037,0.2376 0.31204,0.53302 0.51953,0.88867 0.41526,0.71132 0.9638,1.65674 1.56055,2.68945 4.78299,8.27757 10.25753,18.95901 14.85351,28.69336 3.98759,-0.34747 7.99975,-0.55445 13.76954,-0.55468 5.74843,-1.4e-4 9.94702,0.20978 14,0.55273 4.745,-10.04088 10.80934,-21.85436 15.45117,-29.77344 0.44371,-0.75697 0.85546,-1.44975 1.16992,-1.98047 0.15723,-0.26538 0.28782,-0.48788 0.40234,-0.67773 0.0571,-0.0949 0.10782,-0.17759 0.17774,-0.29102 0.0348,-0.0567 0.0706,-0.115 0.14844,-0.23632 0.0776,-0.12133 -0.43549,0.37012 0.95507,-1.3125 l 0.002,-0.002 c 3.7e-4,-4.3e-4 1.53077,-1.60592 2.23437,-2.13476 0.70352,-0.52884 1.34198,-0.90115 1.9043,-1.18946 1.12467,-0.57662 1.9548,-0.82978 2.61523,-1.00585 1.32091,-0.3522 2.01868,-0.38516 2.56055,-0.41993 0.2711,-0.0174 0.50036,-0.0267 0.69726,-0.0312 0.14797,-0.003 0.27693,-0.004 0.39258,-0.002 h 0.004 c 0.34738,0.005 0.56966,0.0279 0.77148,0.043 0.71811,0.0528 0.98796,0.10449 1.25782,0.14648 0.54039,0.0844 0.88374,0.15338 1.2832,0.23438 0.79926,0.16195 1.69644,0.36118 2.74023,0.60156 2.08751,0.48075 4.68653,1.11302 7.16016,1.75195 16.18462,4.18046 31.03761,9.43072 44.10352,15.67969 l 3.67187,1.75586 c 4.73061,2.26238 7.66447,7.11931 7.4668,12.35938 l -0.14844,3.93554 c -0.48431,12.84093 -1.35047,24.13899 -2.49805,34.43555 7.0848,4.33974 10.21572,6.43642 15.36914,10.35351 h 0.002 c 4.98829,3.79167 8.47121,6.53668 11.38281,8.9375 l -5.30273,3.43165 c 0.003,0.003 0.005,0.007 0.008,0.01 1.83009,-1.16035 3.60155,-2.20116 5.41601,-3.33398 2.29932,1.90012 4.30423,3.6185 6.0918,5.3125 l -5.79883,-5.4961 c 8.58267,-5.34862 16.94078,-10.24868 25.08203,-14.45507 l 4.29688,-2.22266 c 5.29205,-2.73383 11.76124,-1.56992 15.76758,2.83789 l 2.91406,3.20898 c 13.73722,15.11641 25.39026,30.34861 34.20117,44.89063 l 1.72461,2.8457 c 2.58985,4.27388 2.53248,9.64667 -0.14648,13.86524 l -3.1836,5.00976 c -0.4029,0.63419 -0.81807,1.26929 -1.22656,1.9043 7.59063,7.32498 13.8109,16.04412 17.08008,26.1875 0.10582,-0.17779 0.19697,-0.29704 0.29297,-0.43945 0.0772,-0.11388 0.15944,-0.25461 0.23242,-0.35352 0.16102,-0.2194 0.31515,-0.40937 0.46875,-0.60742 0.005,-0.006 0.0107,-0.0143 0.0156,-0.0215 0.1524,-0.19697 0.30637,-0.40608 0.47071,-0.65625 0.17047,-0.26145 0.35269,-0.57253 0.55664,-0.9707 6.72782,-13.13466 14.63761,-36.94489 17.67968,-78.22461 0.47216,-14.06541 -4.39089,-39.93769 -8.35546,-67.55273 -2.58267,-17.98937 -4.54113,-36.76133 -4.28125,-54.611331 -8.56012,12.560541 -18.72378,29.360941 -25.43164,46.824221 a 7.559811,7.559811 0 0 1 -12.47461,2.55468 C 532.18416,112.11016 483.16134,79.596716 401.9082,64.347656 392.00305,62.488733 381.58319,61.432392 370.82422,61.142578 h -0.002 c -2.3524,-0.06344 -4.72244,-0.08913 -7.10547,-0.08008 z"
       transform="matrix(0.26458333,0,0,0.26458333,-171.78549,11.343979)"
       inkscape:label="red" />
    <path
       id="purple"
       style="color:#000000;font-style:normal;font-variant:normal;font-weight:normal;font-stretch:normal;font-size:medium;line-height:normal;font-family:sans-serif;font-variant-ligatures:normal;font-variant-position:normal;font-variant-caps:normal;font-variant-numeric:normal;font-variant-alternates:normal;font-variant-east-asian:normal;font-feature-settings:normal;font-variation-settings:normal;text-indent:0;text-align:start;text-decoration:none;text-decoration-line:none;text-decoration-style:solid;text-decoration-color:#000000;letter-spacing:normal;word-spacing:normal;text-transform:none;writing-mode:lr-tb;direction:ltr;text-orientation:mixed;dominant-baseline:auto;baseline-shift:baseline;text-anchor:start;white-space:normal;shape-padding:0;shape-margin:0;inline-size:0;clip-rule:nonzero;display:inline;overflow:visible;visibility:visible;isolation:auto;mix-blend-mode:normal;color-interpolation:sRGB;color-interpolation-filters:linearRGB;solid-color:#000000;solid-opacity:1;vector-effect:none;fill:#ba2c9c;fill-opacity:1;fill-rule:nonzero;stroke:none;stroke-width:15.1181;stroke-linecap:butt;stroke-linejoin:round;stroke-miterlimit:4;stroke-dasharray:none;stroke-dashoffset:0;stroke-opacity:1;color-rendering:auto;image-rendering:auto;shape-rendering:auto;text-rendering:auto;enable-background:accumulate;stop-color:#000000"
       inkscape:label="purple"
       d="m 203.77148,171.80273 c -0.30265,-0.0166 -0.65633,-0.0185 -1.08593,0.002 -14.75116,0.7414 -39.3451,5.79348 -76.66797,23.83593 -0.27103,0.14434 -0.57739,0.3164 -0.85352,0.46485 -2.09266,1.15569 -4.44378,2.57985 -7.02344,4.2832 l 0.008,-0.0156 a 7.5598109,7.5598109 0 0 1 -2.44922,1.05468 c -24.034815,14.04243 -58.828502,37.99822 -82.000001,62.22266 11.69794,-0.8523 27.483171,-0.82783 48.580078,2.59961 a 7.5598109,7.5598109 0 0 1 6.060547,9.52148 C 74.895422,323.17023 71.247194,381.88402 98.667969,459.87695 125.41138,535.94338 213.38524,614.663 297.30664,630.44141 c 10.41144,1.95746 20.1207,3.32952 29.29297,4.34179 -23.92658,-17.99383 -37.9772,-33.32945 -46.2207,-45.30273 -0.60629,-0.87377 -1.18605,-1.73404 -1.72657,-2.57031 -4.71334,-7.29238 -7.2085,-13.20253 -8.51172,-17.49414 -0.1629,-0.53645 -0.30594,-1.05901 -0.43359,-1.5625 -10e-4,-0.003 -10e-4,-0.005 -0.002,-0.008 -0.002,-0.007 -0.004,-0.0145 -0.006,-0.0215 -0.89351,-3.52308 -0.97461,-6.11524 -0.97461,-6.11524 a 7.5598109,7.5598109 0 0 1 11.68555,-6.31836 c 16.38389,10.67725 35.58633,6.35491 53.64453,-3.48437 3.10785,-1.69336 6.13946,-3.5637 9.06836,-5.52344 0.27271,-0.1846 0.54002,-0.3719 0.8125,-0.55664 -16.4475,-0.78676 -32.66747,-2.43534 -47.16016,-4.83008 -33.41744,-5.52177 -61.2268,-14.96727 -82.62891,-28.55664 -21.40206,-13.5894 -36.52901,-31.83954 -42.1875,-53.64843 -1.97676,-7.61904 -2.57355,-13.18341 -2.72851,-25.81055 l -0.12695,-10.26953 c -0.009,-0.70254 0.0405,-1.40103 0.14257,-2.08985 l 0.008,-11.17382 c -0.0578,-0.50057 -0.0879,-1.00627 -0.0879,-1.51368 l -0.008,-55.0332 -0.008,-50.57031 -0.47266,-0.61719 c -6.42134,-8.36736 -14.64759,-20.25414 -20.57812,-29.7168 l -2.29883,-3.67187 c -2.63834,-4.20999 -2.67982,-9.54743 -0.10547,-13.79688 l 1.72071,-2.83593 c 4.87343,-8.04258 11.82629,-17.97741 18.28906,-26.1836 5.11113,-6.48999 12.88552,-15.58101 17.83984,-20.80859 l 1.23633,-1.30078 c 2.05992,-2.17378 4.72736,-3.50579 7.53711,-3.9375 2.56461,-10.0634 6.97684,-19.63166 14.01367,-27.41211 -1.12703,-0.0147 -1.62808,-0.1948 -2.56055,-0.2461 z"
       transform="matrix(0.26458333,0,0,0.26458333,-171.78549,11.343979)" />
    <path
       id="green"
       style="color:#000000;font-style:normal;font-variant:normal;font-weight:normal;font-stretch:normal;font-size:medium;line-height:normal;font-family:sans-serif;font-variant-ligatures:normal;font-variant-position:normal;font-variant-caps:normal;font-variant-numeric:normal;font-variant-alternates:normal;font-variant-east-asian:normal;font-feature-settings:normal;font-variation-settings:normal;text-indent:0;text-align:start;text-decoration:none;text-decoration-line:none;text-decoration-style:solid;text-decoration-color:#000000;letter-spacing:normal;word-spacing:normal;text-transform:none;writing-mode:lr-tb;direction:ltr;text-orientation:mixed;dominant-baseline:auto;baseline-shift:baseline;text-anchor:start;white-space:normal;shape-padding:0;shape-margin:0;inline-size:0;clip-rule:nonzero;display:inline;overflow:visible;visibility:visible;isolation:auto;mix-blend-mode:normal;color-interpolation:sRGB;color-interpolation-filters:linearRGB;solid-color:#000000;solid-opacity:1;vector-effect:none;fill:#00d347;fill-opacity:1;fill-rule:nonzero;stroke:none;stroke-width:15.1181;stroke-linecap:butt;stroke-linejoin:round;stroke-miterlimit:4;stroke-dasharray:none;stroke-dashoffset:0;stroke-opacity:1;color-rendering:auto;image-rendering:auto;shape-rendering:auto;text-rendering:auto;enable-background:accumulate;stop-color:#000000"
       inkscape:label="green"
       d="m 630.32617,239.86719 c -3.39267,27.86132 -9.10207,47.02611 -14.95117,60.12695 -0.15038,0.34236 -0.30244,0.66041 -0.45312,0.99414 -0.21935,0.47925 -0.43881,0.97684 -0.65821,1.43945 -0.47283,1.00637 -0.94465,1.98221 -1.41797,2.90625 -2.47412,4.83007 -4.91761,8.64064 -7.15039,11.61914 -0.006,0.008 -0.0115,0.0163 -0.0176,0.0234 -0.4402,0.58664 -0.8725,1.1427 -1.29492,1.66602 -0.86168,1.06935 -1.68407,2.01221 -2.45508,2.83594 -3.06494,3.27459 -5.94921,5.05664 -5.94921,5.05664 a 7.559811,7.559811 0 0 1 -11.31055,-6.96094 c 0.67265,-12.45437 -4.52616,-22.84354 -12.92188,-31.52344 -3.85458,5.55051 -7.79254,10.95325 -11.66211,15.9668 l 1.2461,-1.61719 v 43.97266 c 0,26.67307 -0.0423,50.51392 -0.15039,55.31445 l -0.0586,2.52344 c 10e-4,0.0321 0.004,0.0636 0.004,0.0976 l 0.15039,16.40821 c 0.0915,0.65695 0.13294,1.32298 0.125,1.99218 l -0.0644,4.56836 0.008,0.93555 c 0,0.0877 -0.008,0.17114 -0.0273,0.25391 l -0.0625,4.30078 c -0.15758,11.09337 -0.53207,15.72004 -1.77149,21.80859 -7.90723,38.84315 -43.71365,66.04448 -96.93359,80.31836 -27.01132,7.24452 -60.83814,11.20952 -94.47852,11.41797 -7.32517,6.49052 -16.36001,13.21967 -26.77539,18.89453 -15.35836,8.36806 -33.8186,14.0074 -51.56836,10.19336 0.174,0.31325 0.30436,0.58441 0.41211,0.83008 10e-4,0.004 0.003,0.009 0.004,0.0117 0.0937,0.21377 0.17254,0.41133 0.25195,0.60937 0.0139,0.0344 0.029,0.0715 0.043,0.10547 0.1948,0.47524 0.41943,0.9725 0.9043,1.72266 8.00935,12.39159 24.67201,31.14371 58.88672,54.41211 12.07553,7.5295 39.12383,18.22293 68.46679,26.96679 17.6545,5.2608 35.63056,9.41187 52.69141,12.67383 -11.86588,-9.13844 -25.38577,-20.74122 -36.86524,-34.92383 a 7.559811,7.559811 0 0 1 4.03125,-12.08398 c 47.77008,-12.05594 100.43323,-38.24821 154.26563,-100.99219 52.5027,-61.19406 76.69302,-176.74796 48.39648,-257.3164 -3.51236,-10.00071 -7.17726,-19.09551 -10.88867,-27.54883 z"
       transform="matrix(0.26458333,0,0,0.26458333,-171.78549,11.343979)" />
    <path
       id="white"
       style="fill:#fefefe;fill-opacity:1;stroke:none;stroke-width:0.999999px;stroke-linecap:butt;stroke-linejoin:miter;stroke-opacity:1"
       d="m 486.30469,273.58008 -249.28516,2.85742 -54.70312,131.49414 -0.0625,14.61719 36.19531,44.95898 98.57031,37.5 179.99609,-30.32617 51.23633,-52.1582 -0.36718,-14.57032 -13.00782,-42.58789 z m -213.23438,44.28711 c 3.32249,-0.0674 6.66805,0.51141 9.84375,1.84375 15.71169,5.37825 22.36683,26.40464 12.93555,39.96094 -5.769,8.95952 -16.82589,13.62866 -27.28906,11.81445 -14.96856,-2.23828 -25.3484,-18.404 -21.54102,-32.9336 2.60026,-11.95013 14.18475,-20.44475 26.05078,-20.68554 z m 184.00781,0.0469 c 4.40429,-0.10263 8.8237,0.8808 12.78907,3.14258 13.74251,6.86397 18.65582,25.97913 9.95312,38.60547 -5.7984,9.046 -16.82851,13.61871 -27.37109,11.81641 -15.57986,-2.348 -26.03694,-19.87518 -20.94531,-34.72071 3.16949,-11.2273 14.31882,-18.58147 25.57421,-18.84375 z"
       transform="matrix(0.26458333,0,0,0.26458333,-171.78549,11.343979)"
       inkscape:label="white" />
    <path
       style="fill:#3f8cbc;stroke-width:0.0594807;stroke-miterlimit:4;stroke-dasharray:none"
       d="m -78.918158,152.35517 c -4.80325,-0.1612 -9.61083,-0.61661 -13.77781,-1.30515 -17.024812,-2.81313 -27.740352,-9.61704 -30.224412,-19.1912 -0.48402,-1.86557 -0.57008,-2.71099 -0.6105,-5.99854 l -0.0334,-2.71715 0.17169,0.0291 c 0.0945,0.016 3.71265,0.36742 8.04049,0.78093 4.32783,0.41352 7.87329,0.75468 7.87885,0.75814 0.006,0.004 0.13453,1.81011 0.28668,4.01477 0.16187,2.34559 0.31072,4.13212 0.35879,4.30656 0.16557,0.60068 0.63092,1.09922 1.22012,1.3071 0.16957,0.0599 3.16279,0.29416 9.831122,0.76962 5.27303,0.37599 9.72868,0.68361 9.90146,0.68361 0.68949,0 1.3112,-0.38621 1.62875,-1.0118 0.18697,-0.36836 0.21619,-0.52951 0.72656,-4.0064 0.29247,-1.99243 0.54674,-3.70947 0.56508,-3.81562 l 0.0333,-0.19301 h 7.77433 7.77432 l 0.0333,0.19301 c 0.0184,0.10615 0.27261,1.82319 0.56508,3.81562 0.51036,3.47689 0.53959,3.63804 0.72655,4.0064 0.31825,0.62698 0.94813,1.0118 1.65609,1.0118 0.15493,0 4.59537,-0.307 9.86766,-0.68223 6.76417,-0.4814 9.6589,-0.70796 9.83369,-0.76963 0.59316,-0.20928 1.05802,-0.70621 1.22401,-1.30847 0.0481,-0.17444 0.19692,-1.96097 0.35879,-4.30656 0.15215,-2.20466 0.28115,-4.01079 0.2867,-4.01362 0.006,-0.002 3.56437,-0.34458 7.90853,-0.75943 4.34416,-0.41485 7.96293,-0.7683 8.04169,-0.78542 l 0.1432,-0.0312 -0.0378,2.66111 c -0.0411,2.89635 -0.10042,3.65666 -0.39943,5.12568 -1.74668,8.58038 -9.7225,14.98641 -23.13896,18.58476 -7.91578,2.12306 -18.57834,3.18399 -28.61454,2.84719 z m -16.74716,-21.09107 c -4.11552,-0.29517 -7.489662,-0.54183 -7.498082,-0.54812 -0.008,-0.006 -0.13475,-1.73273 -0.28073,-3.83651 -0.14597,-2.10378 -0.28123,-3.96478 -0.30058,-4.13559 -0.0452,-0.39967 -0.32905,-0.96575 -0.60604,-1.20896 -0.11947,-0.10487 -0.35659,-0.25452 -0.52697,-0.33252 -0.2875,-0.13163 -0.95086,-0.2034 -9.23739,-0.99948 -4.9102,-0.47171 -9.04122,-0.87323 -9.18004,-0.89225 l -0.25239,-0.0346 -0.002,-14.56104 -0.002,-14.561046 -0.84395,-1.099712 c -1.59889,-2.083427 -3.76357,-5.209873 -5.25648,-7.591967 l -0.60878,-0.971367 0.45497,-0.750856 c 1.18108,-1.949146 2.98648,-4.532239 4.59731,-6.5776 1.2582,-1.597636 3.35396,-4.043175 4.51214,-5.265227 l 0.32663,-0.344644 1.14321,0.595043 c 2.51386,1.308455 5.14454,2.842506 7.73136,4.508474 l 0.91671,0.590375 0.59766,-0.554495 c 0.85373,-0.792067 1.66946,-1.456889 3.60745,-2.94004 1.79871,-1.376561 2.85521,-2.093163 4.94314,-3.35281 0.97941,-0.590878 1.27988,-0.799899 1.28051,-0.890805 5.3e-4,-0.06533 -0.051,-0.519636 -0.11434,-1.009581 -0.34005,-2.629453 -0.60677,-6.171245 -0.74929,-9.950027 l -0.0393,-1.041968 0.85298,-0.406575 c 3.120052,-1.487191 6.455802,-2.70337 10.240792,-3.7337 1.28542,-0.349907 3.58281,-0.89974 3.61277,-0.864639 0.0105,0.01198 0.27339,0.462734 0.58481,1.001674 1.33681,2.313518 3.00145,5.550216 4.23017,8.225109 0.31508,0.685921 0.59666,1.271415 0.62574,1.301101 0.0317,0.03233 0.34561,0.01402 0.78282,-0.04562 1.80545,-0.246327 2.64976,-0.297045 4.94641,-0.297135 2.30318,-5.8e-5 3.36648,0.06298 5.03513,0.298633 0.42272,0.05971 0.72095,0.07732 0.75311,0.0445 0.0293,-0.02989 0.31083,-0.615553 0.62564,-1.301475 1.22371,-2.666246 3.11909,-6.341165 4.38002,-8.492352 0.22975,-0.391955 0.4255,-0.722061 0.43502,-0.733572 0.0241,-0.02919 1.45642,0.300661 2.69736,0.621189 4.09697,1.058244 7.82433,2.38142 11.03785,3.91834 l 0.97175,0.464754 -0.0393,1.041855 c -0.1433,3.79934 -0.39399,7.126639 -0.75343,10.000345 -0.10569,0.844807 -0.11259,1.012804 -0.0441,1.078831 0.0445,0.04301 0.78926,0.510839 1.65482,1.039614 1.98353,1.21173 2.55538,1.595845 3.91956,2.632763 2.36288,1.796057 3.42531,2.660448 4.36817,3.553957 l 0.4197,0.397732 0.64965,-0.420402 c 2.80632,-1.816002 5.44909,-3.361274 8.02262,-4.690961 l 1.13733,-0.587629 0.77091,0.848315 c 3.5093,3.861633 6.46521,7.737699 8.6485,11.340758 l 0.45626,0.752962 -0.84216,1.325578 c -1.71301,2.696319 -3.64224,5.455055 -5.47937,7.835313 l -0.39488,0.511614 v 12.820776 c 0,7.05143 -0.0178,13.60204 -0.0393,14.55694 l -0.0392,1.73617 -0.18347,0.0309 c -0.10089,0.0169 -4.08519,0.40421 -8.85398,0.86051 -4.76878,0.45632 -8.81025,0.84554 -8.98104,0.86496 -0.39919,0.0454 -0.96573,0.32915 -1.20794,0.60499 -0.25317,0.28836 -0.45768,0.74347 -0.49933,1.11126 -0.0187,0.16516 -0.15307,2.02122 -0.29856,4.12459 -0.14551,2.10338 -0.27177,3.83037 -0.2806,3.83779 -0.0346,0.0291 -15.55097,1.11212 -15.57587,1.08721 -0.0146,-0.0146 -0.26883,-1.66846 -0.56497,-3.67527 -0.29612,-2.00681 -0.56435,-3.74648 -0.59605,-3.86594 -0.0821,-0.30914 -0.39925,-0.75596 -0.69706,-0.98189 -0.52516,-0.3984 0.14541,-0.37467 -10.58311,-0.37467 -10.72854,0 -10.05797,-0.0237 -10.58313,0.37467 -0.29782,0.22593 -0.61503,0.67275 -0.69706,0.98189 -0.0443,0.1665 -1.13183,7.3965 -1.13183,7.52376 0,0.0541 -0.70346,0.008 -8.10633,-0.52217 z m 21.72273,-17.73477 c 0.87129,-0.28393 1.72456,-1.0666 2.07145,-1.90005 l 0.13882,-0.3335 0.0185,-5.4933 c 0.0134,-4.01879 0,-5.58098 -0.0507,-5.819928 -0.29535,-1.393769 -1.78617,-2.4922 -3.38246,-2.4922 -1.55635,0 -2.9975,1.0268 -3.36189,2.39531 -0.0658,0.247208 -0.081,1.336198 -0.0806,5.768348 l 5.3e-4,5.46362 0.14098,0.39942 c 0.35165,0.99631 1.17491,1.73224 2.32108,2.07484 0.50868,0.15205 1.62386,0.12011 2.18438,-0.0626 z m -24.84054,-0.92689 c 3.06806,-0.50351 5.78674,-2.3191 7.42906,-4.96129 0.79574,-1.2802 1.35114,-2.85093 1.54077,-4.35745 0.10604,-0.84233 0.0461,-2.57035 -0.11728,-3.383018 -0.26351,-1.310622 -0.89177,-2.839101 -1.60472,-3.904157 -2.01809,-3.014755 -5.36535,-4.803257 -8.989512,-4.803257 -1.69662,0 -3.14127,0.335352 -4.70183,1.09147 -2.63271,1.275577 -4.61958,3.540186 -5.52141,6.293223 -1.10517,3.373819 -0.51434,6.990169 1.60794,9.841849 1.72695,2.32047 4.39159,3.86953 7.29853,4.24295 0.7916,0.10171 2.246032,0.073 3.058452,-0.0603 z m 50.07194,0.0863 c 6.3525,-0.64113 10.76699,-6.6346 9.49264,-12.887951 -1.01835,-4.997079 -5.42162,-8.598466 -10.52258,-8.606314 -2.19873,-0.0035 -4.24068,0.614543 -6.05105,1.831139 -2.36154,1.586987 -4.00636,4.058793 -4.57011,6.867906 -0.16504,0.82236 -0.2249,2.54476 -0.11797,3.39431 0.39473,3.13598 2.17259,5.97927 4.81223,7.6961 2.06772,1.34483 4.53439,1.9493 6.95684,1.70481 z"
       id="blue"
       sodipodi:nodetypes="sssscsscsssssssscccsssssssscsscsssssssssssscccsscssscsscsssssscssssssscsscsssscsssssscsscssccscsccssssssssssssscssscscscssccssccsssssssssssssssssss"
       inkscape:label="blue" />
  </g>
</svg>
