<?xml version="1.0" encoding="UTF-8" standalone="no"?>
<svg
   xmlns:dc="http://purl.org/dc/elements/1.1/"
   xmlns:cc="http://creativecommons.org/ns#"
   xmlns:rdf="http://www.w3.org/1999/02/22-rdf-syntax-ns#"
   xmlns:svg="http://www.w3.org/2000/svg"
   xmlns="http://www.w3.org/2000/svg"
   xmlns:sodipodi="http://sodipodi.sourceforge.net/DTD/sodipodi-0.dtd"
   xmlns:inkscape="http://www.inkscape.org/namespaces/inkscape"
   width="190.11264mm"
   height="190.11264mm"
   viewBox="0 0 190.11264 190.11264"
   version="1.1"
   id="svg8"
   inkscape:version="1.0.1 (3bc2e813f5, 2020-09-07)"
   sodipodi:docname="gut_logo_vector.svg"
   inkscape:export-filename="C:\Users\Hen\Desktop\GUT_logo\gut_logo_512x512.png"
   inkscape:export-xdpi="68.405762"
   inkscape:export-ydpi="68.405762">
  <defs
     id="defs2" />
  <sodipodi:namedview
     id="base"
     pagecolor="#323232"
     bordercolor="#666666"
     borderopacity="1.0"
     inkscape:pageopacity="0"
     inkscape:pageshadow="2"
     inkscape:zoom="1.4"
     inkscape:cx="312.66803"
     inkscape:cy="471.76095"
     inkscape:document-units="mm"
     inkscape:current-layer="layer1"
     inkscape:document-rotation="0"
     showgrid="false"
     inkscape:pagecheckerboard="false"
     showborder="true"
     borderlayer="false"
     inkscape:showpageshadow="false"
     inkscape:window-width="2560"
     inkscape:window-height="1411"
     inkscape:window-x="-9"
     inkscape:window-y="-9"
     inkscape:window-maximized="1" />
  <metadata
     id="metadata5">
    <rdf:RDF>
      <cc:Work
         rdf:about="">
        <dc:format>image/svg+xml</dc:format>
        <dc:type
           rdf:resource="http://purl.org/dc/dcmitype/StillImage" />
        <dc:title></dc:title>
      </cc:Work>
    </rdf:RDF>
  </metadata>
  <g
     inkscape:label="main"
     inkscape:groupmode="layer"
     id="main"
     transform="translate(171.78549,-11.343979)">
    <path
       id="green"
       style="fill:#00d347;fill-opacity:1;stroke:none;stroke-width:15.1181;stroke-linecap:butt;stroke-linejoin:round;stroke-miterlimit:4;stroke-dasharray:none;stroke-opacity:1"
       inkscape:transform-center-x="-26.397906"
       inkscape:transform-center-y="28.201098"
       d="m 626.77344,260.93945 c -4.8961,29.626 -12.01703,49.20247 -18.83594,62.04883 -0.47426,0.90114 -0.94632,1.77206 -1.41797,2.60352 -1.07627,1.89731 -2.14099,3.62964 -3.18164,5.21093 -2.59285,3.93994 -5.03989,6.93792 -7.17383,9.18946 -0.41884,0.44194 -0.8254,0.85633 -1.21875,1.24219 -0.008,0.008 -0.0155,0.0159 -0.0234,0.0234 -0.0433,0.0423 -0.0857,0.0772 -0.12891,0.11914 -3.15129,3.05893 -6.02735,4.67969 -6.02735,4.67969 a 7.5598105,7.5598105 0 0 1 -11.00585,-7.43359 c 1.02414,-10.57236 -2.26373,-19.83378 -8.21289,-27.92774 -0.0348,0.0434 -0.0707,0.0855 -0.10547,0.12891 -1.23506,1.53911 -2.47711,3.06779 -3.72657,4.58203 -0.0164,0.0199 -0.0324,0.0406 -0.0488,0.0605 -0.0759,0.0919 -0.15262,0.18164 -0.22852,0.27343 -1.07892,1.30485 -2.16105,2.59476 -3.24414,3.87305 -0.33749,0.39847 -0.67418,0.79205 -1.01172,1.1875 -0.91275,1.06895 -1.82358,2.1239 -2.73437,3.16797 -0.31744,0.364 -0.63425,0.72921 -0.95118,1.08984 -1.0544,1.19948 -2.10508,2.38096 -3.15039,3.53907 -0.10045,0.11129 -0.20239,0.22896 -0.30273,0.33984 l 1.27539,-1.4043 -3.45508,43.83399 v 0.002 c -1.04783,13.29452 -2.05174,25.88285 -2.85351,35.74414 -5e-5,5.4e-4 4e-5,0.001 0,0.002 -0.80173,9.86064 -1.402,16.99442 -1.64454,19.38282 -3e-5,3.3e-4 4e-5,0.002 0,0.002 l -0.2539,2.50977 v 0.002 c -9.5e-4,0.0315 -0.002,0.0624 -0.004,0.0957 -4e-5,6.8e-4 4e-5,0.001 0,0.002 l -1.14062,16.36718 c 0.0191,0.33099 0.0264,0.66333 0.0215,0.9961 -10e-6,6.5e-4 1e-5,10e-4 0,0.002 -0.005,0.33212 -0.0221,0.66352 -0.0527,0.99609 -6e-5,6.5e-4 6e-5,10e-4 0,0.002 l -0.42383,4.54687 v 0.002 l -0.0644,0.93164 v 0.002 c -0.007,0.0866 -0.0229,0.1713 -0.0469,0.25195 -1.8e-4,6.1e-4 1.8e-4,10e-4 0,0.002 L 545,457.48828 v 0.002 c -0.2571,2.76072 -0.49591,5.11755 -0.73633,7.19336 -6e-5,5.6e-4 7e-5,10e-4 0,0.002 -0.015,0.12914 -0.0299,0.23628 -0.0449,0.36328 -0.20799,1.76375 -0.41955,3.32725 -0.64453,4.76172 -0.0192,0.1222 -0.0372,0.26042 -0.0566,0.38086 -10e-5,6e-4 10e-5,10e-4 0,0.002 -0.13164,0.81753 -0.26926,1.59591 -0.41406,2.34961 -1.2e-4,6.1e-4 1.1e-4,10e-4 0,0.002 -0.14482,0.75362 -0.29801,1.4827 -0.46094,2.20313 -1.4e-4,6.1e-4 1.4e-4,10e-4 0,0.002 -0.16295,0.7204 -0.33547,1.43256 -0.52149,2.15039 -1.6e-4,6.2e-4 1.6e-4,0.001 0,0.002 -0.18604,0.71787 -0.38554,1.44158 -0.59961,2.1875 -1.7e-4,6.2e-4 1.8e-4,0.001 0,0.002 -0.34156,1.19006 -0.70978,2.36616 -1.10351,3.52929 -2e-4,5.9e-4 2e-4,10e-4 0,0.002 -0.39376,1.16312 -0.81449,2.31306 -1.25977,3.44922 -2.2e-4,5.6e-4 2.3e-4,0.001 0,0.002 -0.4453,1.13615 -0.91593,2.25802 -1.41211,3.36719 -2.4e-4,5.4e-4 2.5e-4,0.001 0,0.002 -0.4962,1.10916 -1.01996,2.20497 -1.5664,3.28711 -2.7e-4,5.2e-4 2.6e-4,0.001 0,0.002 -0.54647,1.08214 -1.11683,2.14999 -1.71289,3.20508 -2.9e-4,5e-4 2.8e-4,0.001 0,0.002 -0.59609,1.05509 -1.21825,2.09699 -1.86328,3.125 -3e-4,4.8e-4 2.9e-4,10e-4 0,0.002 -0.64507,1.02801 -1.3164,2.04206 -2.00977,3.04297 -3.1e-4,4.4e-4 3.1e-4,0.002 0,0.002 -0.6934,1.00091 -1.41128,1.98716 -2.15234,2.96094 -3.2e-4,4.2e-4 3.2e-4,0.002 0,0.002 -0.7411,0.97378 -1.50681,1.93229 -2.29493,2.8789 -3.2e-4,4e-4 3.3e-4,0.002 0,0.002 -0.78815,0.94662 -1.60101,1.8794 -2.43554,2.79883 -3.3e-4,3.6e-4 3.3e-4,0.002 0,0.002 -0.83457,0.91944 -1.69197,1.82458 -2.57227,2.7168 -4.40283,4.46248 -9.37435,8.58387 -14.87305,12.36328 -7.5e-4,5.2e-4 -10e-4,0.001 -0.002,0.002 -6.59836,4.53501 -13.95713,8.57712 -22.00586,12.12305 -7.9e-4,3.5e-4 -10e-4,0.002 -0.002,0.002 -0.77211,0.34014 -1.56485,0.66509 -2.34961,0.99609 -0.96347,0.4064 -1.93369,0.8066 -2.91602,1.19922 -10.72985,4.28853 -22.56514,7.76416 -35.38281,10.40235 -1.66078,0.34183 -3.33822,0.67037 -5.03125,0.98437 -1.86078,0.34512 -3.75919,0.66821 -5.67773,0.97852 -0.52003,0.0841 -1.0482,0.16253 -1.57227,0.24414 -1.38412,0.2154 -2.7802,0.42155 -4.1914,0.61914 -0.68636,0.0962 -1.37393,0.1912 -2.06641,0.2832 -1.36652,0.18133 -2.74742,0.35264 -4.13672,0.51758 -0.62313,0.0741 -1.23967,0.15184 -1.86719,0.22266 -1.91963,0.21624 -3.85627,0.42002 -5.81445,0.60546 -0.78988,0.075 -1.59294,0.139 -2.38867,0.20899 -1.2077,0.10593 -2.41623,0.21028 -3.63672,0.30469 -1.07378,0.0833 -2.15521,0.15799 -3.23828,0.23242 -0.9262,0.0634 -1.85451,0.12475 -2.78711,0.18164 -1.17889,0.0722 -2.3584,0.1413 -3.54688,0.20312 -0.83817,0.0434 -1.68275,0.079 -2.52539,0.11719 -4.59462,0.20956 -9.24995,0.34252 -13.95312,0.39844 -0.47023,0.005 -0.93908,0.0136 -1.41016,0.0176 -1.61752,0.0139 -3.23864,0.0159 -4.86523,0.0117 -0.31943,-8.8e-4 -0.63925,-0.002 -0.95899,-0.004 -7.38126,-0.0349 -14.83808,-0.25596 -22.30468,-0.66211 -0.0847,-0.005 -0.16927,-0.007 -0.25391,-0.0117 0.0658,0.004 0.13147,0.008 0.19726,0.0117 -7.57163,6.14052 -16.83955,12.43892 -27.42968,17.63672 -15.70166,7.70676 -34.38509,12.55813 -51.95703,7.99023 0.16713,0.33306 0.28732,0.61686 0.38671,0.875 0.0151,0.0359 0.022,0.0675 0.0371,0.10157 0.27391,0.7237 0.41485,1.29219 1.0625,2.39453 0.46299,0.78803 0.95706,1.6022 1.48633,2.4414 0.005,0.008 0.0107,0.0139 0.0156,0.0215 0.53051,0.84004 1.09409,1.70521 1.69531,2.5957 0.006,0.008 0.0115,0.0199 0.0176,0.0273 0.60155,0.8904 1.23955,1.80394 1.91601,2.74414 8.8794,12.34098 24.39668,28.93632 51.36329,49.00781 11.7399,8.0372 38.31943,19.87133 67.26953,29.85937 17.41239,6.00745 35.19087,10.91864 52.0957,14.9043 -11.46446,-9.63504 -24.47488,-21.80273 -35.33789,-36.45898 a 7.5598105,7.5598105 0 0 1 4.5332,-11.89844 c 48.24031,-10.01004 101.9811,-33.93235 158.4375,-94.32617 55.06184,-58.90194 84.15121,-173.32269 59.3125,-255.02344 -3.08155,-10.136 -6.36261,-19.37834 -9.70898,-27.97852 z"
       transform="matrix(0.26458333,0,0,0.26458333,-171.78549,11.343979)"
       inkscape:label="green" />
    <path
       id="purple"
       style="fill:#ba2c9c;fill-opacity:1;stroke:none;stroke-width:15.1181;stroke-linecap:butt;stroke-linejoin:round;stroke-miterlimit:4;stroke-dasharray:none;stroke-opacity:1"
       inkscape:transform-center-x="43.583092"
       inkscape:transform-center-y="13.358686"
       d="m 202.41992,174.71289 c -14.76446,0.11231 -39.53987,4.11455 -77.57617,20.53711 -0.62823,0.30085 -1.32349,0.65193 -1.97852,0.97266 -1.86202,0.96324 -3.91212,2.108 -6.11914,3.43359 -0.004,0.002 -0.005,0.006 -0.008,0.008 a 7.5598105,7.5598105 0 0 1 -2.49023,0.94922 c -24.612441,13.006 -60.394404,35.44879 -84.572269,58.66016 11.723717,-0.35331 27.493398,0.34283 48.425781,4.66601 a 7.5598105,7.5598105 0 0 1 5.654297,9.77344 c -15.45135,46.783 -21.608554,105.28671 2.464844,184.37695 23.478837,77.13668 108.027317,159.53133 191.201177,178.8711 10.32067,2.3997 19.96538,4.18749 29.08789,5.58984 -23.12459,-18.98513 -36.50777,-34.90037 -44.23633,-47.21094 -0.57385,-0.90674 -1.12218,-1.79824 -1.63086,-2.66406 -3.85799,-6.56674 -6.05386,-11.99732 -7.29102,-16.16406 -0.17389,-0.58473 -0.32846,-1.1432 -0.46679,-1.67774 -0.001,-0.004 -0.003,-0.003 -0.004,-0.006 -0.004,-0.008 -0.004,-0.0159 -0.006,-0.0234 -0.1372,-0.53276 -0.25468,-1.05113 -0.35938,-1.55078 -0.75105,-3.5737 -0.7246,-6.18555 -0.7246,-6.18555 a 7.5598105,7.5598105 0 0 1 11.94336,-5.80859 c 15.91414,11.36549 35.28708,7.86384 53.74804,-1.19727 3.18489,-1.56321 6.30017,-3.30827 9.31641,-5.14648 0.42629,-0.26298 0.84731,-0.52878 1.27148,-0.79297 -0.67428,-0.0726 -1.35246,-0.13497 -2.02539,-0.21094 -4.33107,-0.488 -8.65135,-1.04257 -12.9414,-1.64844 -0.31163,-0.044 -0.62625,-0.0824 -0.9375,-0.12695 -6.4e-4,-9e-5 -10e-4,9e-5 -0.002,0 -0.30112,-0.0431 -0.59768,-0.093 -0.89844,-0.13672 -3.96141,-0.57575 -7.8873,-1.19875 -11.76171,-1.86719 -0.32056,-0.0553 -0.647,-0.1062 -0.9668,-0.16211 -6.4e-4,-1.1e-4 -0.001,1.1e-4 -0.002,0 -0.40928,-0.0716 -0.80881,-0.15011 -1.2168,-0.22265 -3.61039,-0.642 -7.16636,-1.32274 -10.65625,-2.03907 -0.43118,-0.0885 -0.8737,-0.17018 -1.30273,-0.25976 -6.3e-4,-1.3e-4 -0.001,1.3e-4 -0.002,0 -2.14727,-0.44836 -4.267,-0.91002 -6.35547,-1.38477 -2.08848,-0.47476 -4.14478,-0.96309 -6.16601,-1.46289 -6.1657,-1.52461 -12.12363,-3.16968 -17.86914,-4.93945 -0.61106,-0.18822 -1.20431,-0.38712 -1.81055,-0.57813 -1.29379,-0.40763 -2.59154,-0.81403 -3.86328,-1.23437 -1.86752,-0.61723 -3.70965,-1.24788 -5.5293,-1.89258 -3.63987,-1.28962 -7.18297,-2.63324 -10.6289,-4.0332 -1.72272,-0.69985 -3.42011,-1.41309 -5.09375,-2.14063 -3.34783,-1.45534 -6.597,-2.96465 -9.7461,-4.53125 -1.57431,-0.78315 -3.12243,-1.58151 -4.64648,-2.39257 -7.62022,-4.05539 -14.60956,-8.45969 -20.94336,-13.21876 -1.26717,-0.95211 -2.50801,-1.92003 -3.72266,-2.90429 -1.21388,-0.98361 -2.40063,-1.983 -3.56054,-2.99805 -3.7e-4,-3.2e-4 -0.002,3.2e-4 -0.002,0 -1.16027,-1.01538 -2.29173,-2.04757 -3.39648,-3.09375 -1.10476,-1.04619 -2.18078,-2.10725 -3.22852,-3.18359 -1.04807,-1.07664 -2.06715,-2.1673 -3.05664,-3.27344 -2.47297,-2.7645 -4.76099,-5.61899 -6.85156,-8.56055 -3.1e-4,-4.3e-4 3.1e-4,-0.002 0,-0.002 -0.41812,-0.58832 -0.82821,-1.17828 -1.23047,-1.77344 -0.8045,-1.19029 -1.57649,-2.39419 -2.31641,-3.61133 -2.9e-4,-4.8e-4 3e-4,-10e-4 0,-0.002 -1.10988,-1.82574 -2.14711,-3.68016 -3.10742,-5.56445 -0.6402,-1.25618 -1.24653,-2.52527 -1.81836,-3.80664 -0.57183,-1.28138 -1.10938,-2.57494 -1.61133,-3.88086 -0.50195,-1.30592 -0.96788,-2.62333 -1.39843,-3.95313 -1.9e-4,-5.9e-4 1.9e-4,-0.001 0,-0.002 -0.21528,-0.66491 -0.42199,-1.3312 -0.61914,-2.00195 -0.3943,-1.3415 -0.75164,-2.69421 -1.07227,-4.0586 -1.4e-4,-6.2e-4 1.5e-4,-0.001 0,-0.002 -0.16017,-0.68158 -0.31162,-1.36557 -0.45312,-2.05273 -1.3e-4,-6.3e-4 1.2e-4,-0.001 0,-0.002 -0.14162,-0.6878 -0.27376,-1.377 -0.39649,-2.07031 -0.34301,-1.9377 -0.61011,-3.74125 -0.80469,-5.55273 -0.0972,-0.90502 -0.17687,-1.81318 -0.23828,-2.74024 -4e-5,-6.3e-4 4e-5,-10e-4 0,-0.002 -0.0614,-0.92775 -0.10439,-1.87375 -0.13086,-2.85938 -0.10605,-3.94294 0.0636,-8.49285 0.48243,-14.79297 l 0.67968,-10.24804 c 0.0465,-0.70103 0.15093,-1.39163 0.30664,-2.07032 l 0.88672,-11.13867 c -0.0193,-0.50358 -0.0104,-1.00977 0.0293,-1.51562 l 4.3164,-54.86524 3.9668,-50.41406 -0.42187,-0.65234 c -0.71828,-1.10617 -1.45991,-2.26847 -2.21875,-3.47657 -0.75858,-1.20758 -1.53337,-2.45912 -2.31836,-3.74414 -1.56986,-2.57013 -3.17904,-5.27034 -4.76953,-8.0039 -2.386,-4.10016 -4.7318,-8.27435 -6.84571,-12.19336 -0.7046,-1.30636 -1.38321,-2.58484 -2.02929,-3.82227 L 143.75,260.91016 c -0.28742,-0.55054 -0.53231,-1.11451 -0.73633,-1.68946 -0.10222,-0.28808 -0.19398,-0.5785 -0.27539,-0.87109 -0.0813,-0.29196 -0.15228,-0.5855 -0.21289,-0.88086 -0.66673,-3.24865 -0.0848,-6.6708 1.69141,-9.54883 2.8e-4,-4.6e-4 -2.9e-4,-10e-4 0,-0.002 0.16153,-0.26167 0.3324,-0.51741 0.51367,-0.76953 l 1.9375,-2.69336 c 5.49025,-7.6348 13.20346,-16.99103 20.29101,-24.66406 1.40132,-1.51709 2.9811,-3.18318 4.64649,-4.9043 1.66571,-1.72146 3.41705,-3.49684 5.16015,-5.23438 3.48519,-3.47406 6.93864,-6.79424 9.61329,-9.20507 l 1.33203,-1.20118 c 0.33557,-0.3025 0.68831,-0.57735 1.04687,-0.83984 0.0948,-0.0691 0.19085,-0.13491 0.28711,-0.20117 0.31288,-0.21645 0.63197,-0.41882 0.95899,-0.60547 0.0504,-0.0286 0.0996,-0.06 0.15039,-0.0879 0.82817,-0.45823 1.69689,-0.81673 2.58984,-1.08399 0.005,-0.002 0.0103,-0.004 0.0156,-0.006 3.00926,-7.88246 7.30199,-15.22882 13.29492,-21.3125 -1.46997,-0.0873 -1.86259,-0.4101 -3.63477,-0.39649 z"
       transform="matrix(0.26458333,0,0,0.26458333,-171.78549,11.343979)"
       inkscape:label="purple" />
    <path
       id="red"
       style="fill:#fe1f00;fill-opacity:1;stroke:none;stroke-width:15.1181;stroke-linecap:butt;stroke-linejoin:round;stroke-miterlimit:4;stroke-dasharray:none;stroke-opacity:1"
       inkscape:transform-center-x="-3.0473804"
       inkscape:transform-center-y="-42.586715"
       d="m 358.76172,70.748047 c -5.53212,-0.0054 -11.13487,0.170467 -16.78711,0.523437 -67.8269,4.235441 -142.68679,33.933836 -186.4375,80.705076 -7.23693,7.73654 -13.59853,15.20039 -19.37305,22.39844 26.31534,-9.89901 45.96417,-13.69887 60.28906,-14.56445 0.0476,-0.003 0.0914,-0.005 0.13868,-0.008 0.83561,-0.0494 1.67505,-0.10063 2.47461,-0.13085 1.10377,-0.0459 2.181,-0.076 3.21289,-0.084 4.35329,-0.0331 8.11447,0.22106 11.32812,0.63281 3.20969,0.40793 5.87467,0.97311 8.03516,1.57422 4.32102,1.20223 7.23437,2.9375 7.23437,2.9375 a 7.5598105,7.5598105 0 0 1 -0.9375,13.25196 c -10.0905,4.5915 -16.59502,12.53553 -20.59179,22.29101 l 0.26757,0.16797 c 3.92142,2.45069 7.88894,5.07292 11.87305,7.81836 4.5e-4,3.1e-4 0.002,-3.1e-4 0.002,0 3.98398,2.74528 7.98232,5.61344 11.96485,8.55273 l 0.20117,0.14844 0.10547,-0.0801 c 2.50889,-1.75198 5.48487,-3.74142 9.6914,-6.46484 6.60949,-4.27927 11.58676,-7.09367 18.50586,-10.62891 -0.17113,-4.98494 -0.24907,-10.41964 -0.21875,-16.21094 0.0303,-5.79115 0.16889,-11.93917 0.43165,-18.35156 l 0.1621,-3.9375 c 0.14798,-3.60605 1.75947,-6.91406 4.34571,-9.24023 0.47016,-0.42298 0.97231,-0.81403 1.5039,-1.16797 4.6e-4,-3.1e-4 0.002,3.1e-4 0.002,0 0.79701,-0.53051 1.6596,-0.97981 2.57812,-1.33203 l 3.33399,-1.27735 c 12.99666,-4.98334 26.73691,-8.78821 41.95703,-11.66992 2.7092,-0.51294 6.19718,-1.10115 9.15039,-1.5664 1.47655,-0.23262 2.79793,-0.43122 3.87695,-0.57813 0.53949,-0.0734 0.99173,-0.13186 1.54297,-0.1875 0.2756,-0.0278 0.53519,-0.0597 1.13867,-0.082 0.3018,-0.0112 0.63667,-0.0413 1.55078,0.0273 0.45706,0.0341 1.02847,0.0565 2.25977,0.36719 0.30784,0.0777 0.65899,0.17003 1.08398,0.31641 0.42531,0.1466 0.92282,0.34628 1.52344,0.64258 0.59966,0.2958 1.30903,0.69159 2.13281,1.3164 0.82326,0.62445 2.69136,2.74923 2.69336,2.75196 l 0.002,0.002 c 0.47113,0.64887 0.76776,1.07023 0.94726,1.33789 0.17893,0.26682 0.24103,0.37962 0.24805,0.41797 2e-5,1.3e-4 -2e-5,0.002 0,0.002 0.007,0.038 -0.0423,-4.9e-4 -0.0899,-0.041 -0.0476,-0.0406 -0.0931,-0.0831 -0.0762,-0.0508 0.0673,0.12945 0.10258,0.19184 0.13282,0.25586 0.0643,0.12828 0.11493,0.23353 0.17578,0.35742 0.12128,0.2479 0.27007,0.5549 0.44922,0.92579 0.35811,0.74174 0.82999,1.72828 1.34374,2.80468 1.02945,2.15695 2.09052,4.46787 3.16211,6.87696 2.14319,4.81817 4.33047,10.03141 6.39844,15.20898 1.03399,2.58879 2.03795,5.1692 2.99219,7.68555 2.00128,-0.0165 4.00534,0.002 6.22852,0.082 1.11153,0.0397 2.27757,0.0947 3.52539,0.16797 1.24845,0.0734 2.57684,0.164 4.01562,0.27734 2.86536,0.22577 5.34107,0.47395 7.60156,0.74805 2.26051,0.27392 4.30576,0.57412 6.3125,0.9043 1.37982,-2.40926 2.85125,-4.92288 4.36328,-7.45508 3.0242,-5.06445 6.21313,-10.20452 9.16993,-14.74219 1.47833,-2.26881 2.89851,-4.38706 4.21093,-6.26953 0.50181,-0.71977 0.96504,-1.37845 1.32032,-1.88281 0.17775,-0.2522 0.32619,-0.4623 0.45507,-0.64258 0.0643,-0.0901 0.12061,-0.16974 0.19922,-0.27735 0.0393,-0.0538 0.081,-0.10978 0.16797,-0.22461 0.0225,-0.0298 0.004,-0.0226 -0.0117,-0.0215 -0.008,8.3e-4 0.003,-0.0178 0.002,-0.0254 -7.9e-4,-0.006 -0.0125,-0.003 0,-0.0234 5e-5,-9e-5 -6e-5,-0.002 0,-0.002 0.063,-0.098 0.30522,-0.37608 1.06445,-1.16016 l 0.002,-0.002 c 4.2e-4,-4e-4 1.65155,-1.48119 2.39453,-1.95313 0.74287,-0.47192 1.4089,-0.79389 1.99219,-1.0371 1.16648,-0.48646 2.01527,-0.67321 2.6875,-0.79688 1.34449,-0.24737 2.04108,-0.22473 2.58399,-0.2168 0.27165,0.004 0.50241,0.0125 0.69921,0.0234 0.14784,0.008 0.27535,0.0183 0.39063,0.0293 h 0.004 c 0.3459,0.0326 0.56354,0.0725 0.76367,0.10351 0.71175,0.10904 0.97829,0.18106 1.24414,0.24414 0.5321,0.12658 0.86791,0.2238 1.25976,0.33594 0.78409,0.22426 1.66386,0.49282 2.68555,0.81445 2.04329,0.64329 4.58229,1.47729 6.99805,2.3086 11.85459,4.0794 22.91671,8.69997 32.99414,13.8164 3.35923,1.70543 6.60856,3.46523 9.74219,5.2793 l 3.52148,2.03906 c 1.70184,0.98516 3.1233,2.31416 4.20313,3.86524 0.17995,0.25853 0.35102,0.52266 0.51171,0.79297 0.48253,0.81127 0.87501,1.67326 1.17383,2.57031 0.0995,0.29886 0.18957,0.60012 0.26758,0.90625 0.0169,0.0663 0.0271,0.13454 0.043,0.20117 0.13093,0.54903 0.23156,1.10547 0.29101,1.67188 0.0666,0.63451 0.0879,1.27799 0.0605,1.92578 -0.0137,0.32389 -0.0401,0.64909 -0.0781,0.97461 l -0.45703,3.91406 c -0.37295,3.19079 -0.76168,6.28182 -1.16602,9.28516 -8e-5,6.2e-4 8e-5,0.001 0,0.002 -0.8086,6.00594 -1.67962,11.65474 -2.60352,17.01367 -10e-5,6.2e-4 1.1e-4,0.001 0,0.002 -0.46189,2.67908 -0.93763,5.28706 -1.42578,7.83008 3.36096,2.4415 5.78018,4.2453 7.96289,5.97852 2.18272,1.73322 4.13008,3.39582 6.54493,5.55078 h 0.002 c 4.67493,4.17189 7.93054,7.18055 10.64453,9.80273 l -4.90039,2.65039 c 0.006,0.007 0.0115,0.0123 0.0176,0.0195 0.0125,-0.007 0.0246,-0.013 0.0371,-0.0195 1.66415,-0.86307 3.29526,-1.67016 4.95898,-2.53515 1.07145,1.03745 2.07171,2.02449 3.01172,2.98047 0.94043,0.95665 1.81981,1.88197 2.64453,2.79687 l -5.34961,-5.93555 c 3.75014,-1.94587 7.44459,-3.79576 11.10352,-5.57421 1.73883,-0.84514 3.46566,-1.66357 5.18359,-2.46485 1.15611,-0.53926 2.32023,-1.09535 3.4668,-1.61328 7.9e-4,-3.6e-4 0.001,-0.002 0.002,-0.002 2.14534,-0.96908 4.27312,-1.89868 6.38477,-2.78711 l 4.45898,-1.87695 c 0.68631,-0.2887 1.38539,-0.51545 2.0918,-0.68165 1.41276,-0.3324 2.85245,-0.42269 4.26172,-0.2871 0.7047,0.0678 1.40109,0.19178 2.08398,0.37109 0.68282,0.17929 1.35296,0.41405 2,0.70117 0.64711,0.28714 1.27178,0.62628 1.86914,1.01758 0.29865,0.19564 0.58945,0.404 0.87305,0.625 4.2e-4,3.3e-4 0.002,-3.3e-4 0.002,0 0.28319,0.22073 0.55778,0.45562 0.82422,0.70117 0.53406,0.49207 1.03202,1.03207 1.48828,1.62109 l 2.6543,3.42774 c 3.12675,4.03726 6.12347,8.07016 8.97851,12.08789 3.1e-4,4.3e-4 -3e-4,0.002 0,0.002 2.8547,4.01729 5.56943,8.01748 8.13086,11.98828 2.9e-4,4.6e-4 -2.9e-4,0.002 0,0.002 2.56138,3.97076 4.97029,7.91128 7.2168,11.80859 4.4e-4,7.6e-4 0.002,0.001 0.002,0.002 1.12291,1.9481 2.20591,3.88586 3.2461,5.81055 2.6e-4,4.9e-4 -2.7e-4,0.001 0,0.002 1.0403,1.92494 2.03928,3.83817 2.99414,5.73633 l 1.49414,2.97266 c 0.28077,0.55802 0.51882,1.12957 0.71484,1.71094 0.39205,1.16272 0.61608,2.36289 0.67383,3.5664 0.0866,1.80529 -0.19977,3.61653 -0.84766,5.31641 -2.2e-4,5.8e-4 2.2e-4,10e-4 0,0.002 -0.21583,0.56604 -0.47186,1.1194 -0.76757,1.65625 -2.9e-4,5.1e-4 2.8e-4,10e-4 0,0.002 -0.14778,0.26818 -0.30705,0.53174 -0.47461,0.79101 -3.1e-4,4.7e-4 3e-4,10e-4 0,0.002 -0.16762,0.25928 -0.34589,0.51442 -0.53321,0.76368 l -2.24414,2.98437 c 5.50016,6.6588 9.85699,14.20507 12.1836,22.62891 0.80862,-1.22665 1.28616,-1.40408 2.1582,-2.94141 7.28023,-12.83435 16.20368,-36.28079 21.00195,-77.38281 1.07372,-14.02988 -2.68537,-40.09712 -5.4707,-67.86328 -1.81408,-18.08411 -2.96765,-36.9205 -1.94727,-54.74414 -9.08722,12.18435 -19.9569,28.54206 -27.40234,45.70312 a 7.5598105,7.5598105 0 0 1 -12.57813,2.01367 C 534.1641,129.10404 486.57274,94.530517 406.04297,75.833984 391.31662,72.415001 375.35808,70.764299 358.76172,70.748047 Z"
       transform="matrix(0.26458333,0,0,0.26458333,-171.78549,11.343979)"
       inkscape:label="red" />
    <path
       id="white"
       style="fill:#fefefe;fill-opacity:1;stroke:none;stroke-width:0.999999px;stroke-linecap:butt;stroke-linejoin:miter;stroke-opacity:1"
       d="m 259.89648,303.84961 c -4.64871,0.10348 -8.99228,1.02126 -13.66601,2.84766 -10.29846,4.02434 -18.45634,11.96707 -22.67188,22.07226 -5.16601,12.38382 -4.01481,26.18561 3.13477,37.56055 5.81775,9.25602 15.39824,15.88405 26.24023,18.1543 2.95246,0.61827 8.44033,0.94066 11.54102,0.67968 11.70949,-0.98604 22.49415,-7.01868 29.4668,-16.48633 3.37839,-4.58728 5.93574,-10.34093 7.09765,-15.96093 0.64968,-3.14226 0.93857,-9.6707 0.56446,-12.78125 -0.60366,-5.01646 -2.51866,-10.96281 -4.88868,-15.1875 -6.70854,-11.95843 -18.7881,-19.69132 -32.44336,-20.76758 -0.79907,-0.063 -1.58605,-0.10426 -2.36132,-0.125 -0.67837,-0.0182 -1.34957,-0.0205 -2.01368,-0.006 z m 5.41602,16.40625 c 3.79623,0.0124 7.59134,0.85312 11.08984,2.65625 15.24051,6.59614 20.22511,28.07823 9.75782,40.85156 -6.45514,8.47854 -17.84648,12.26547 -28.13477,9.63477 -14.74639,-3.40747 -23.822,-20.33793 -18.88477,-34.52344 3.3899,-11.24053 14.78322,-18.65618 26.17188,-18.61914 z m 91.61133,14.94726 c -5.46845,0.0157 -10.61309,3.33379 -12.28125,8.06641 -0.32141,0.91189 -0.70314,5.01113 -2.01758,21.71094 l -1.62109,20.58594 0.41406,1.54687 c 1.02908,3.85837 3.91206,6.87657 8.12891,8.50781 1.87145,0.72397 6.08179,0.93407 8.24804,0.41211 3.36718,-0.81105 6.8146,-3.50566 8.36914,-6.54297 l 0.62305,-1.21679 1.70117,-20.69141 c 1.24409,-15.13818 1.65733,-21.02796 1.53711,-21.94336 -0.69891,-5.33922 -5.99128,-9.9205 -12.00586,-10.39453 -0.36651,-0.0289 -0.73114,-0.0421 -1.0957,-0.041 z m 136.40234,29.91016 a 11.338583,11.338583 0 0 1 -0.12109,0.55469 11.338583,11.338583 0 0 0 0.12109,-0.55469 z m -324.14062,37.8418 -1.21094,14.5664 0.63672,0.16016 c 0.35149,0.0884 13.88063,2.48678 30.06445,5.33008 16.18379,2.8433 29.44106,5.1826 29.46094,5.19726 0.0227,0.0151 -0.0313,6.85894 -0.11328,15.21094 -0.0865,8.88586 -0.055,15.66248 0.0742,16.33399 0.44549,2.31246 2.05072,4.32888 4.20898,5.28711 0.62113,0.2759 11.82846,2.04661 36.8125,5.81836 19.75629,2.98255 36.45446,5.46429 37.10547,5.51562 2.59789,0.20485 5.05525,-1.0653 6.4375,-3.32812 0.81387,-1.3324 0.97028,-1.9301 3.92578,-14.87891 1.69367,-7.42031 3.16308,-13.81448 3.26367,-14.20899 l 0.18164,-0.71679 29.29297,2.30859 29.29297,2.3086 0.0684,0.73632 c 0.0378,0.4054 0.4858,6.95093 0.99609,14.54492 0.89045,13.25194 0.95183,13.86711 1.54688,15.31055 1.01292,2.45688 3.27196,4.09443 5.93945,4.30469 0.58374,0.0461 17.40622,0.20744 37.38281,0.35937 25.62926,0.19503 36.60241,0.20137 37.2793,0.0195 2.29708,-0.61236 4.19769,-2.34647 5.00195,-4.56641 0.23286,-0.64297 1.32439,-7.33135 2.63086,-16.12109 1.22797,-8.26164 2.24977,-15.02808 2.27149,-15.03711 0.0223,-0.008 20.29445,-3.37776 30.40039,-5.29493 10.36045,-1.96543 30.68841,-6.322 30.99023,-6.36328 l 0.54883,-0.0742 0.7793,-14.55273 -0.70117,0.0625 c -0.38514,0.034 -22.68302,4.44661 -34.07227,6.4043 -11.46177,1.97019 -33.82337,5.35255 -34.47266,5.375 -1.51758,0.0525 -3.73594,0.95251 -4.73046,1.91992 -1.03953,1.01132 -1.94477,2.66566 -2.21094,4.03906 -0.11951,0.61674 -1.17874,7.57119 -2.35156,15.45313 -1.17288,7.88197 -2.15982,14.35159 -2.19532,14.37695 -0.13901,0.0994 -58.92529,-0.42804 -59.01172,-0.5293 -0.0507,-0.0593 -0.51731,-6.36635 -1.0371,-14.01562 -0.51981,-7.64927 -1.01368,-14.28463 -1.09766,-14.74414 -0.21744,-1.18919 -1.27896,-2.96655 -2.33399,-3.90625 -1.86042,-1.65706 0.65974,-1.36866 -39.76367,-4.55469 -40.42344,-3.18603 -37.89124,-3.07553 -39.98828,-1.73047 -1.1892,0.76282 -2.51707,2.35175 -2.91797,3.49219 -0.21641,0.61417 -6.46025,27.53221 -6.49804,28.01172 -0.0163,0.20371 -2.65321,-0.17901 -30.38868,-4.375 h -0.002 c -15.419,-2.33435 -28.05998,-4.26483 -28.08984,-4.29102 -0.0265,-0.0265 0.008,-6.56898 0.082,-14.53906 0.0748,-7.97008 0.118,-15.02255 0.0957,-15.67188 -0.0518,-1.51933 -0.95237,-3.73574 -1.92383,-4.73437 -0.419,-0.43064 -1.26793,-1.06565 -1.88672,-1.41016 -1.04417,-0.58133 -3.52383,-1.0494 -34.50976,-6.50976 -18.36079,-3.23551 -33.80489,-5.975 -34.32227,-6.08789 z"
       transform="matrix(0.26458333,0,0,0.26458333,-171.78549,11.343979)"
       inkscape:label="white" />
    <path
       id="blue"
       style="fill:#3f8cbc;stroke-width:0.0594807;stroke-miterlimit:4;stroke-dasharray:none"
       d="m -84.37416,50.32713 c -0.0135,-0.01868 -0.60354,0.06377 -1.35392,0.181901 -0.37535,0.05913 -0.79077,0.127084 -1.19424,0.195852 -0.40307,0.06867 -0.79429,0.13806 -1.12138,0.199988 -1.92713,0.364877 -3.746,0.785143 -5.48649,1.268659 -0.43511,0.120869 -0.86561,0.245721 -1.29139,0.374653 -1.27721,0.386783 -2.51477,0.810357 -3.72484,1.274341 l -0.88212,0.338479 -0.0429,1.041797 c -0.0387,0.944576 -0.0686,1.875023 -0.0894,2.78071 -0.0209,0.90587 -0.0327,1.786615 -0.0357,2.632398 -0.006,1.691259 0.0242,3.241074 0.0904,4.565097 0.0247,0.493405 0.0406,0.950351 0.0346,1.015441 -10e-4,0.01132 -0.007,0.02405 -0.0181,0.03876 -0.0342,0.04413 -0.11852,0.10582 -0.27441,0.196887 -0.20785,0.121425 -0.54279,0.295338 -1.05419,0.551389 -0.54512,0.272923 -1.02312,0.517334 -1.46348,0.749308 -0.88071,0.463888 -1.61012,0.878983 -2.42104,1.377693 -0.40547,0.249383 -0.83157,0.519597 -1.3069,0.827339 -1.02427,0.663149 -1.75283,1.14455 -2.33939,1.550294 -0.58656,0.405741 -1.03111,0.735822 -1.48777,1.09709 l -0.63923,0.505912 -0.86765,-0.660424 c -0.61198,-0.466018 -1.22748,-0.924173 -1.84382,-1.372526 -1.84901,-1.345062 -3.70677,-2.603039 -5.50922,-3.72949 l -1.09296,-0.683162 -0.35295,0.31781 c -0.62524,0.563581 -1.50803,1.414108 -2.40709,2.309937 -0.89916,0.895966 -1.81483,1.83742 -2.50475,2.584338 -0.44164,0.478118 -0.89798,0.988672 -1.35496,1.514637 -8e-5,9.8e-5 9e-5,5.29e-4 0,5.29e-4 -0.91386,1.051846 -1.8301,2.16454 -2.63498,3.200839 -8e-5,1.03e-4 8e-5,5.29e-4 0,5.29e-4 -0.40238,0.518079 -0.77744,1.017017 -1.11001,1.479498 l -0.51263,0.713134 0.53072,1.015961 c 0.16264,0.311502 0.33457,0.635227 0.51418,0.967898 1.1e-4,2.12e-4 5.3e-4,2.65e-4 5.3e-4,5.3e-4 0.1795,0.33248 0.36644,0.673806 0.55862,1.020093 7e-5,1.35e-4 -8e-5,2.64e-4 0,5.29e-4 0.38453,0.692872 0.79025,1.406334 1.19992,2.110467 0.5363,0.921766 1.07672,1.819844 1.58854,2.644799 0.0747,0.120391 0.15207,0.247079 0.22531,0.363802 7e-5,1.19e-4 -8e-5,5.29e-4 0,5.29e-4 0.19162,0.305398 0.37785,0.597604 0.55655,0.872816 l 0.75499,1.162719 -1.14205,14.51643 -1.14204,14.51591 0.24908,0.0543 c 0.13689,0.0299 4.22314,0.75469 9.0811,1.61075 8.19836,1.44472 8.85443,1.56857 9.1307,1.72238 0.16373,0.0912 0.38834,0.25916 0.4992,0.3731 0.25703,0.26422 0.49531,0.85065 0.50901,1.25264 0.006,0.1718 -0.006,2.03776 -0.0253,4.14651 -0.0196,2.10876 -0.0287,3.8398 -0.0217,3.8468 0.008,0.007 3.35249,0.5177 7.4321,1.13533 h 5.3e-4 c 7.33834,1.11019 8.03603,1.21145 8.04034,1.15755 0.01,-0.12687 1.66201,-7.24893 1.71927,-7.41143 0.10607,-0.30174 0.4574,-0.72215 0.77205,-0.92398 0.55484,-0.35588 -0.11514,-0.38511 10.58023,0.45786 10.69536,0.84297 10.02857,0.76666 10.5208,1.20509 0.27915,0.24863 0.56001,0.71889 0.61754,1.03353 0.0222,0.12158 0.15289,1.87718 0.29042,3.90105 0.13753,2.02387 0.26098,3.6926 0.2744,3.7083 0.0229,0.0268 15.576737,0.16635 15.613517,0.14005 0.0094,-0.007 0.27052,-1.71847 0.580845,-3.8039 0.310308,-2.08543 0.590563,-3.92547 0.622183,-4.08864 0.07043,-0.36338 0.309936,-0.80109 0.584978,-1.06867 0.263134,-0.25596 0.850075,-0.49408 1.251601,-0.50798 0.171792,-0.006 6.088298,-0.90086 9.120891,-1.42214 3.013406,-0.51797 8.913054,-1.68547 9.014955,-1.69447 l 0.185518,-0.0165 0.175183,-1.72754 c 0.09647,-0.95026 0.408681,-4.68129 0.962732,-11.71092 l 1.007173,-12.781128 0.434081,-0.479039 c 0.504621,-0.557138 1.016707,-1.137354 1.531173,-1.734262 0.514469,-0.596908 1.031497,-1.210815 1.545127,-1.834512 0.770379,-0.935517 1.533776,-1.893806 2.272212,-2.853058 8.5e-5,-1.08e-4 -8.4e-5,-5.29e-4 0,-5.29e-4 0.246171,-0.319786 0.489726,-0.639424 0.729671,-0.958599 l 0.943613,-1.25522 -0.395843,-0.786514 c -0.473295,-0.940742 -0.993709,-1.902327 -1.557526,-2.879928 -7.4e-5,-1.27e-4 7.2e-5,-2.65e-4 0,-5.29e-4 -0.563837,-0.977617 -1.1713,-1.971067 -1.819529,-2.976047 -7.7e-5,-1.19e-4 7.7e-5,-5.29e-4 0,-5.29e-4 -0.324032,-0.502357 -0.65855,-1.00774 -1.002522,-1.515155 -1.32e-4,-1.96e-4 -2.65e-4,-2.65e-4 -5.29e-4,-5.29e-4 -1.032343,-1.522847 -2.152563,-3.065604 -3.350702,-4.612639 l -0.701765,-0.905888 -1.179772,0.496094 c -0.564697,0.237582 -1.134591,0.486849 -1.707906,0.743625 -0.104386,0.04675 -0.207934,0.0916 -0.312643,0.139009 -0.339759,0.153831 -0.681341,0.311483 -1.024744,0.472321 -0.573887,0.268774 -1.154967,0.54968 -1.740464,0.838711 -0.465984,0.230031 -0.934341,0.464093 -1.408697,0.707449 -0.713451,0.366037 -1.437018,0.747754 -2.171962,1.145151 l -0.680577,0.367935 h -5.29e-4 L -40.219343,78.235 c -0.217432,-0.241207 -0.442648,-0.481232 -0.692465,-0.736391 -0.749443,-0.765472 -1.721895,-1.667556 -3.382738,-3.149677 -0.958958,-0.855758 -1.502375,-1.309987 -2.508374,-2.059308 -0.335275,-0.249727 -0.721627,-0.532373 -1.192176,-0.873331 -0.82107,-0.594953 -1.526415,-1.119656 -1.567862,-1.166337 -1.3e-5,-1.5e-5 -5.29e-4,1.6e-5 -5.29e-4,0 -0.01577,-0.01781 -0.02622,-0.04138 -0.03049,-0.0801 -0.0043,-0.03872 -0.0021,-0.09255 0.0072,-0.170013 0.0186,-0.154871 0.06658,-0.405228 0.152445,-0.822174 0.145999,-0.708985 0.287311,-1.447001 0.424262,-2.213816 2.9e-5,-1.64e-4 -2.9e-5,-2.65e-4 0,-5.3e-4 0.01005,-0.05632 0.01995,-0.115448 0.02997,-0.172082 0.262596,-1.485829 0.508957,-3.077231 0.738457,-4.781103 0.119134,-0.88447 0.23382,-1.798386 0.344165,-2.742467 l 0.120922,-1.035598 -0.932241,-0.539501 c -2.312122,-1.338495 -4.921697,-2.57997 -7.770069,-3.697965 -0.949446,-0.372631 -1.925629,-0.731684 -2.925924,-1.075904 -1.21191,-0.417042 -2.61384,-0.858165 -2.64014,-0.830956 -0.0104,0.01072 -0.23161,0.324424 -0.49145,0.697114 -1.42605,2.045462 -3.60438,5.560131 -5.0338,8.121986 -0.18386,0.32953 -0.35726,0.634751 -0.48886,0.860928 -0.13157,0.226255 -0.22088,0.373313 -0.23667,0.387059 -7e-5,5e-5 -5.3e-4,-5.3e-5 -5.3e-4,0 -0.009,0.0075 -0.0337,0.0108 -0.0724,0.0098 -0.0392,-0.0011 -0.0928,-0.0064 -0.15813,-0.01551 -0.13039,-0.01802 -0.30841,-0.05129 -0.51676,-0.09767 -0.41107,-0.09147 -0.78539,-0.169178 -1.15136,-0.237194 -1.6e-4,-3.2e-5 -2.6e-4,2.9e-5 -5.2e-4,0 -0.36595,-0.06801 -0.72374,-0.126317 -1.10175,-0.178803 -1.5e-4,-2.1e-5 -2.6e-4,2.4e-5 -5.2e-4,0 -0.37804,-0.05248 -0.77644,-0.09929 -1.2237,-0.144176 -1.6e-4,-1.4e-5 -2.7e-4,1.5e-5 -5.3e-4,0 -0.4475,-0.0449 -0.94372,-0.0881 -1.51774,-0.133324 -2.28955,-0.18038 -3.13499,-0.195691 -4.95422,-0.09199 -0.3304,0.01887 -0.58976,0.01992 -0.71107,0.0047 -0.0404,-0.0051 -0.0656,-0.01199 -0.0729,-0.02066 -0.0133,-0.01593 -0.0785,-0.175493 -0.17311,-0.419611 -0.0946,-0.244118 -0.21871,-0.572796 -0.34882,-0.927076 -0.12684,-0.345395 -0.25961,-0.699966 -0.39739,-1.060919 -0.41336,-1.082854 -0.87037,-2.222153 -1.33687,-3.336745 -0.46651,-1.114594 -0.94258,-2.204513 -1.39423,-3.188435 -0.15055,-0.327975 -0.29849,-0.644255 -0.44235,-0.945679 -0.26811,-0.561745 -0.49485,-1.031603 -0.50385,-1.044382 z m -18.11414,41.411944 c 0.20513,0.0055 0.41335,0.0164 0.62477,0.03307 3.61295,0.284761 6.809,2.330755 8.58397,5.494756 0.62707,1.117783 1.13375,2.691088 1.29347,4.01836 0.099,0.823 0.0225,2.55032 -0.14935,3.38171 -0.30742,1.48695 -0.98406,3.00927 -1.87792,4.22299 -1.84485,2.50498 -4.69829,4.10112 -7.79643,4.36201 -0.82039,0.0691 -2.27239,-0.0162 -3.05356,-0.17983 -2.86861,-0.60067 -5.40345,-2.35434 -6.94272,-4.80333 -1.89166,-3.00962 -2.19625,-6.66134 -0.82941,-9.937893 1.11536,-2.673665 3.2738,-4.775179 5.9986,-5.839953 1.41325,-0.552267 2.71271,-0.790305 4.14858,-0.751892 z m 50.246032,7.725108 c 0.456629,-0.0038 0.912688,0.02532 1.367359,0.08837 3.637328,0.504418 6.524104,2.893638 8.9979,5.939688 a 3.0000001,3.0000001 0 0 1 -0.437185,4.21887 3.0000001,3.0000001 0 0 1 -4.220929,-0.4377 c -1.977822,-2.43535 -3.75225,-3.58332 -5.164027,-3.7791 -1.411777,-0.19578 -3.121408,0.27151 -5.734534,2.82618 a 3.0000001,3.0000001 0 0 1 -4.242116,-0.0491 3.0000001,3.0000001 0 0 1 0.0491,-4.24211 c 2.96419,-2.89789 6.188032,-4.53826 9.384442,-4.565102 z m -25.106992,0.568958 c 0.0965,-2.6e-4 0.19293,0.003 0.2899,0.0108 1.59136,0.12542 2.99163,1.33755 3.17655,2.75022 0.0318,0.2422 -0.0775,1.80054 -0.40669,5.80585 l -0.4501,5.4746 -0.16485,0.32194 c -0.41131,0.80362 -1.32344,1.51657 -2.21434,1.73116 -0.57315,0.1381 -1.68713,0.0825 -2.18229,-0.10904 -1.11571,-0.43159 -1.8785,-1.23016 -2.15078,-2.25102 l -0.10955,-0.40928 0.42891,-5.44669 c 0.34778,-4.41849 0.44878,-5.50308 0.53382,-5.74436 0.44137,-1.25217 1.80256,-2.13009 3.24942,-2.13423 z m -49.99282,21.78007 -0.18035,2.71146 c -0.13626,2.05035 -0.17968,3.15073 -0.1111,4.15117 0.0412,0.60026 0.12258,1.16468 0.24856,1.87637 0.0539,0.30436 0.11576,0.60672 0.18603,0.90692 0.14056,0.60039 0.31388,1.1924 0.51936,1.7756 0.20547,0.5832 0.44311,1.15755 0.71261,1.72289 0.53901,1.13068 1.20542,2.22519 1.99523,3.28042 0.3949,0.52762 0.82065,1.04512 1.27692,1.55288 9e-5,1e-4 -8e-5,5.3e-4 0,5.3e-4 0.45612,0.50757 0.9428,1.00536 1.45935,1.49242 0.51682,0.48731 1.06377,0.96377 1.64021,1.42988 0.28816,0.23302 0.58335,0.46333 0.88625,0.69091 1.1e-4,9e-5 5.3e-4,-8e-5 5.3e-4,0 0.90858,0.68269 1.88317,1.34115 2.9223,1.97353 0.34654,0.21089 0.70008,0.4186 1.06092,0.62373 0.72128,0.41004 1.47121,0.80877 2.24896,1.19528 0.77802,0.38665 1.58379,0.761 2.41742,1.12344 0.41674,0.18119 0.84025,0.35933 1.27072,0.53434 0.43062,0.17507 0.86782,0.34692 1.31207,0.51573 1.33227,0.50625 2.72571,0.98405 4.17855,1.43247 0.48428,0.14947 0.97481,0.29585 1.47227,0.43873 1.5e-4,5e-5 2.6e-4,-4e-5 5.2e-4,0 0.49731,0.14283 1.00118,0.28242 1.51154,0.41858 0.51068,0.13625 1.02769,0.26895 1.55133,0.39843 4.1,1.01382 8.85651,1.84572 13.63224,2.38383 v -5.3e-4 c 1.24734,0.14054 2.50612,0.25997 3.76979,0.35864 1.89552,0.148 3.80179,0.2493 5.69682,0.30385 1.7e-4,10e-6 2.6e-4,0 5.3e-4,0 1.26317,0.0364 2.52131,0.0519 3.76772,0.047 1.24659,-0.005 2.48191,-0.0302 3.69849,-0.076 1.21657,-0.0457 2.41457,-0.11153 3.58789,-0.19792 1.17333,-0.0864 2.32172,-0.19311 3.43855,-0.31987 0.55842,-0.0634 1.10873,-0.13173 1.65055,-0.20516 1.083615,-0.14685 2.13259,-0.31393 3.139856,-0.50074 1.280412,-0.23748 2.514873,-0.50314 3.703133,-0.79685 0.792173,-0.19581 1.56388,-0.40431 2.314588,-0.62477 0.375354,-0.11023 0.745614,-0.22317 1.110525,-0.33952 0.633301,-0.20191 1.247865,-0.41493 1.849501,-0.6351 0.438229,-0.16038 0.871119,-0.32404 1.292426,-0.49403 3.332602,-1.34458 6.134309,-2.9889 8.379336,-4.91494 0.449013,-0.38524 0.875741,-0.78141 1.280025,-1.18908 0.404283,-0.40766 0.786521,-0.82644 1.145664,-1.25625 0.179573,-0.2149 0.353205,-0.4328 0.521417,-0.65319 0.33642,-0.44078 0.650356,-0.89244 0.941028,-1.35496 0.145335,-0.23125 0.284757,-0.46513 0.418578,-0.70176 0.401461,-0.70991 0.751084,-1.44422 1.047999,-2.20193 0.197943,-0.50514 0.372515,-1.02064 0.523481,-1.54668 0.103325,-0.36006 0.189479,-0.67727 0.264583,-0.99529 4e-5,-1.6e-4 -3.7e-5,-2.6e-4 0,-5.3e-4 0.03757,-0.15909 0.07216,-0.31805 0.104905,-0.48317 0.03271,-0.16511 0.06364,-0.33615 0.09302,-0.51832 0.117488,-0.72868 0.214199,-1.63792 0.337963,-3.08095 l 0.467672,-5.44773 -0.145211,0.0196 c -0.07986,0.0109 -5.458296,1.1636 -8.199499,1.68362 -2.673863,0.50725 -8.037536,1.39895 -8.043436,1.40095 -0.0057,0.002 -0.276098,1.79268 -0.600999,3.97857 -0.34567,2.32562 -0.63447,4.09525 -0.696081,4.26537 -0.212794,0.58736 -0.715664,1.04618 -1.323433,1.2082 -0.179094,0.0481 -3.082406,0.0464 -9.863481,-0.005 -5.28548,-0.0402 -9.73642,-0.0829 -9.89087,-0.0951 -0.70578,-0.0556 -1.30348,-0.4889 -1.57148,-1.13895 -0.15744,-0.38191 -0.17368,-0.54468 -0.40928,-4.05092 -0.13501,-2.00925 -0.25355,-3.74108 -0.26355,-3.84834 l -0.0181,-0.19482 -7.75043,-0.61082 -7.75043,-0.61081 -0.0481,0.18965 c -0.0266,0.10438 -0.41539,1.79617 -0.86351,3.75946 -0.78198,3.42604 -0.82336,3.58418 -1.0387,3.93671 -0.36572,0.59871 -1.01589,0.93477 -1.70325,0.88057 -0.17225,-0.0136 -4.59031,-0.67021 -9.81749,-1.45934 -6.61036,-0.99795 -9.57563,-1.46645 -9.73998,-1.53945 -0.57103,-0.25353 -0.99575,-0.78704 -1.11362,-1.39888 -0.0342,-0.17767 -0.0425,-1.97065 -0.0196,-4.3217 0.0217,-2.2098 0.036,-4.02056 0.03,-4.02456 -0.005,-0.004 -3.51291,-0.62282 -7.79488,-1.37511 -4.28196,-0.75229 -7.86155,-1.38685 -7.95455,-1.41025 z"
       inkscape:label="blue" />
    <path
       id="lines"
       style="fill:#403f40;stroke-width:0.224454"
       d="m 358.75977,55.40625 c -5.87672,-0.04278 -11.81271,0.105708 -17.78907,0.443359 -71.71634,4.051816 -149.12272,35.185998 -196.46875,85.800781 -15.05255,16.09171 -26.88421,31.222 -36.30273,44.99219 C 77.11834,202.59479 28.534378,232.04023 3.3964844,264.4707 a 7.5598107,7.5598107 0 0 0 8.2011716,11.84766 c 0,0 4.453725,-1.45057 15.029297,-2.00781 9.115956,-0.48034 23.203475,0.33312 40.585938,3.29883 -14.286199,47.9482 -18.98813,107.55946 4.546875,184.88085 25.490113,83.74447 112.226314,168.26919 202.234374,189.19727 21.92619,5.09816 41.3488,7.81885 58.23828,9.05664 15.21405,8.29668 36.79281,17.16646 60.2793,25.26953 29.69485,10.24502 61.9401,18.9428 86.81055,21.90039 a 7.5598107,7.5598107 0 0 0 4.92382,-13.89844 c 0,0 -28.34456,-18.701 -50.41797,-44.35156 47.78278,-12.00884 100.47405,-37.73174 154.38477,-95.40234 59.7787,-63.94768 89.61032,-181.32765 62.73047,-269.74219 -6.56711,-21.60086 -13.94536,-39.8285 -21.33984,-55.10156 -0.53842,-16.33385 -3.53157,-36.62495 -5.67774,-58.01953 -2.73966,-27.31092 -4.06264,-56.0181 1.43945,-76.955081 a 7.5598107,7.5598107 0 0 0 -12.85156,-7.064453 c 0,0 -24.92538,27.402564 -41.88476,61.048824 C 536.28825,112.53853 487.32997,79.1829 409.4668,61.105469 393.47888,57.393585 376.3899,55.534581 358.75977,55.40625 Z m 0.002,15.341797 c 16.59636,0.0161 32.5549,1.666952 47.28125,5.085937 80.52977,18.696533 128.12136,53.269856 160.91015,90.042966 a 7.5598107,7.5598107 0 0 0 12.57813,-2.01367 c 7.44544,-17.16106 18.31512,-33.51877 27.40234,-45.70312 -1.02038,17.82364 0.13319,36.66003 1.94727,54.74414 2.78533,27.76616 6.54442,53.8334 5.4707,67.86328 -4.79827,41.10202 -13.72172,64.54846 -21.00195,77.38281 -0.87204,1.53733 -1.34958,1.71476 -2.1582,2.94141 -2.32661,-8.42384 -6.68344,-15.97011 -12.1836,-22.62891 l 2.24414,-2.98437 c 3.00217,-3.99503 3.48058,-9.34638 1.23438,-13.81055 l -1.49414,-2.97266 c -7.6409,-15.18936 -18.06135,-31.29041 -30.56836,-47.43945 l -2.6543,-3.42774 c -3.64762,-4.70895 -10.00365,-6.37792 -15.49414,-4.06835 l -4.45898,1.87695 c -8.44659,3.55372 -17.16424,7.78371 -26.14063,12.4414 l 5.34961,5.93555 c -1.64891,-1.82921 -3.51335,-3.70244 -5.65625,-5.77734 -1.67613,0.87144 -3.31857,1.68387 -4.99609,2.55469 -0.006,-0.007 -0.012,-0.0129 -0.0176,-0.0195 l 4.90039,-2.65039 c -2.71399,-2.62218 -5.9696,-5.63084 -10.64453,-9.80273 h -0.002 c -4.8297,-4.30992 -7.7859,-6.6463 -14.50782,-11.5293 1.95307,-10.17455 3.70355,-21.36964 5.19532,-34.13281 l 0.45703,-3.91406 c 0.60864,-5.20836 -1.93442,-10.28112 -6.47266,-12.90821 l -3.52148,-2.03906 c -12.53451,-7.25627 -26.93021,-13.6565 -42.73633,-19.0957 -2.41576,-0.83131 -4.95476,-1.66531 -6.99805,-2.3086 -1.02169,-0.32161 -1.90146,-0.59019 -2.68555,-0.81445 -0.39185,-0.11214 -0.72766,-0.20936 -1.25976,-0.33594 -0.26585,-0.0631 -0.53239,-0.1351 -1.24414,-0.24414 -0.20013,-0.031 -0.41777,-0.0709 -0.76367,-0.10351 h -0.004 c -0.11528,-0.011 -0.24279,-0.021 -0.39063,-0.0293 -0.1968,-0.011 -0.42756,-0.0197 -0.69921,-0.0234 -0.54291,-0.008 -1.2395,-0.0306 -2.58399,0.2168 -0.67223,0.12367 -1.52102,0.31042 -2.6875,0.79688 -0.58329,0.24321 -1.24932,0.5652 -1.99219,1.0371 -0.74298,0.47193 -2.39411,1.95273 -2.39453,1.95313 l -0.002,0.002 c -1.51846,1.56816 -0.9678,1.11759 -1.05469,1.23242 -0.0869,0.11483 -0.12866,0.17079 -0.16797,0.22461 -0.0786,0.10761 -0.13496,0.18721 -0.19922,0.27735 -0.12888,0.18028 -0.27732,0.39038 -0.45507,0.64258 -0.35528,0.50436 -0.81851,1.16304 -1.32032,1.88281 -5.24968,7.52987 -12.22485,18.82979 -17.74414,28.4668 -4.01348,-0.66035 -8.18335,-1.20082 -13.91406,-1.65235 -5.75195,-0.45312 -9.76697,-0.56042 -13.76953,-0.52734 -3.81695,-10.06539 -8.43494,-21.1437 -12.55274,-29.77149 -0.51373,-1.0764 -0.98565,-2.06294 -1.34374,-2.80468 -0.17915,-0.37089 -0.32794,-0.67789 -0.44922,-0.92579 -0.0609,-0.12387 -0.11155,-0.22914 -0.17578,-0.35742 -0.0302,-0.064 -0.0655,-0.12641 -0.13282,-0.25586 -0.0677,-0.12933 0.85525,0.92948 -1.02929,-1.66601 l -0.002,-0.002 c -0.002,-0.003 -1.8701,-2.12751 -2.69336,-2.75196 -0.82378,-0.62481 -1.53315,-1.0206 -2.13281,-1.3164 -1.19924,-0.59162 -1.99174,-0.80366 -2.60742,-0.95899 -1.2313,-0.31068 -1.80271,-0.33306 -2.25977,-0.36719 -0.45706,-0.0343 -0.77029,-0.0433 -1.00586,-0.043 -0.23556,3.5e-4 -0.39402,0.01 -0.54492,0.0156 -0.60348,0.0223 -0.86307,0.0542 -1.13867,0.082 -0.55124,0.0556 -1.00348,0.11407 -1.54297,0.1875 -1.07902,0.14691 -2.4004,0.34551 -3.87695,0.57813 -2.95321,0.46525 -6.44119,1.05346 -9.15039,1.5664 -15.22012,2.88171 -28.96037,6.68658 -41.95703,11.66992 l -3.33399,1.27735 c -4.90159,1.87962 -8.21444,6.49506 -8.42969,11.74023 l -0.1621,3.9375 c -0.52551,12.82479 -0.55506,24.59262 -0.2129,34.5625 -6.9191,3.53524 -11.89637,6.34964 -18.50586,10.62891 -4.20651,2.72342 -7.18251,4.71286 -9.6914,6.46484 l -0.10547,0.0801 -0.20117,-0.14844 c -7.96505,-5.87858 -15.99702,-11.46972 -23.83985,-16.37109 l -0.26757,-0.16797 c 3.99678,-9.75548 10.5013,-17.69949 20.59179,-22.29101 a 7.5598107,7.5598107 0 0 0 0.9375,-13.25196 c 0,0 -2.91335,-1.73527 -7.23437,-2.9375 -2.16051,-0.60111 -4.8255,-1.16629 -8.03516,-1.57422 -3.21368,-0.41175 -6.97483,-0.66588 -11.32812,-0.63281 -1.0319,0.008 -2.10913,0.0381 -3.21289,0.084 -0.79959,0.0303 -1.639,0.0814 -2.47461,0.13085 -0.0474,0.003 -0.0911,0.005 -0.13868,0.008 -14.32491,0.86558 -33.97373,4.66544 -60.28906,14.56445 5.77452,-7.19805 12.13612,-14.6619 19.37305,-22.39844 43.75071,-46.77124 118.6106,-76.469635 186.4375,-80.705076 5.65224,-0.352954 11.25499,-0.528802 16.78711,-0.523437 z M 330.3731,147.33789 c 0.034,0.0483 0.89096,1.82414 1.90429,3.94727 4.34986,9.11396 9.66086,21.80262 13.4961,32.24609 0.98351,2.67801 1.87193,4.96936 1.97265,5.08984 0.10961,0.1312 1.29786,0.15555 2.96289,0.0605 6.87583,-0.39196 10.0712,-0.33406 18.72461,0.34766 8.67803,0.68375 12.66561,1.23766 18.88282,2.62109 1.575,0.35053 2.69328,0.50474 2.82421,0.39063 0.11944,-0.1039 1.3543,-2.22585 2.74415,-4.7168 5.40253,-9.6826 13.63559,-22.96639 19.02539,-30.69727 0.98207,-1.40859 1.81812,-2.59426 1.85742,-2.63476 0.0994,-0.10284 5.39803,1.5644 9.97851,3.14062 15.12249,5.20397 28.77416,11.29779 40.42579,18.04297 l 3.52343,2.03906 -0.45703,3.91407 c -1.66819,14.27275 -3.60085,26.73415 -5.80859,37.45507 -0.64908,3.15171 -0.72682,3.78361 -0.48828,4.05274 0.15503,0.17529 2.82344,2.15881 5.92773,4.4082 7.11378,5.15465 9.15424,6.77192 13.98633,11.08399 8.3696,7.46896 12.11516,11.04091 15.40234,14.6875 l 1.46289,1.62304 2.57422,-1.39062 c 11.11305,-6.00902 21.52957,-11.04717 31.6211,-15.29297 l 4.45898,-1.875 2.65234,3.42383 c 12.07572,15.59217 22.06246,31.07468 29.21875,45.29883 l 1.4961,2.97265 -3.56641,4.74414 c -7.25508,9.6506 -15.34377,19.47363 -22.97266,27.89649 l -1.64062,1.81054 -3.80664,48.30664 c -2.09405,26.56868 -3.27404,40.67019 -3.63867,44.26172 l -0.66211,6.5293 -0.7793,14.55273 -1.76758,20.58985 c -0.93554,10.9079 -1.46254,13.74713 -3.02539,19.19336 -9.12933,31.81081 -41.08339,53.57857 -92.70312,63.15234 -30.4559,5.64858 -70.94734,6.47994 -108.66211,2.23047 v 0.002 c -18.05001,-2.0338 -36.02738,-5.178 -51.52344,-9.00976 -63.3114,-15.65526 -101.66532,-44.47354 -108.18164,-81.28516 -1.26969,-7.1729 -1.34354,-10.38228 -0.51953,-22.78125 l 0.68164,-10.24805 1.21094,-14.5664 4.3164,-54.86328 4.31641,-54.86524 -2.85352,-4.39453 c -5.40563,-8.32484 -12.63316,-20.74733 -17.55078,-30.16601 l -2.00586,-3.83985 1.9375,-2.69531 c 5.02897,-6.99333 12.59863,-16.18973 19.27539,-23.41797 5.21515,-5.64599 13.8377,-14.23748 18.56446,-18.49805 l 1.33398,-1.20117 4.13086,2.58203 c 9.08326,5.6766 18.539,12.2379 27.79102,19.28321 l 3.27929,2.49609 2.41602,-1.91211 c 3.45192,-2.73085 6.72237,-4.99309 14.46484,-10.00586 7.18606,-4.6525 11.38003,-7.03992 19.6211,-11.16601 3.86574,-1.93549 5.06044,-2.63228 5.08984,-2.97461 0.0227,-0.24601 -0.0376,-1.97305 -0.13086,-3.83789 -0.50037,-10.00835 -0.45421,-23.43271 0.13086,-37.7129 l 0.16211,-3.9375 3.33398,-1.27929 c 12.19752,-4.67695 25.12807,-8.26924 39.69532,-11.02735 4.94717,-0.93666 13.76671,-2.32474 13.86914,-2.18359 z m -127.95313,27.375 c 1.77216,-0.0135 2.16479,0.30918 3.63477,0.39649 -5.99295,6.08369 -10.28567,13.43004 -13.29492,21.3125 -1.83008,0.54521 -3.56188,1.48377 -5.04883,2.82421 l -1.33203,1.20118 c -5.34981,4.82213 -13.81466,13.27542 -19.41993,19.34375 -7.08755,7.67303 -14.80076,17.02926 -20.29101,24.66406 l -1.9375,2.69336 c -2.9003,4.03403 -3.27986,9.35744 -0.98047,13.76172 l 2.00391,3.84179 c 5.16865,9.89939 12.43759,22.39422 18.18164,31.24024 l 0.42187,0.65234 -3.9668,50.41406 -4.3164,54.86524 c -0.0397,0.50585 -0.0486,1.01204 -0.0293,1.51562 l -0.88672,11.13867 c -0.15571,0.67869 -0.26015,1.36929 -0.30664,2.07032 l -0.67968,10.24804 c -0.83766,12.60023 -0.68064,18.19648 0.6914,25.94727 3.92738,22.18605 17.57363,41.56793 37.8418,56.79687 20.26817,15.22901 47.25055,26.83054 80.13086,34.96094 16.16987,3.9984 34.62633,7.21677 53.20898,9.31055 0.67293,0.0758 1.35111,0.1382 2.02539,0.21094 -0.42417,0.26415 -0.84519,0.53 -1.27148,0.79297 -3.01624,1.83823 -6.13152,3.58326 -9.31641,5.14648 -18.46096,9.06111 -37.83389,12.56276 -53.74804,1.19727 a 7.5598107,7.5598107 0 0 0 -11.94336,5.80859 c 0,0 -0.0247,2.61185 0.7246,6.18555 0.10477,0.49965 0.2221,1.01801 0.35938,1.55078 0.002,0.007 0.004,0.0146 0.006,0.0215 6.9e-4,0.003 8.5e-4,0.005 0.002,0.008 0.13812,0.53451 0.29285,1.09303 0.4668,1.67774 1.23713,4.16675 3.43301,9.59734 7.29101,16.16406 0.50868,0.86581 1.05703,1.7573 1.63086,2.66406 7.72858,12.31057 21.11175,28.22582 44.23633,47.21094 -9.12251,-1.40237 -18.76721,-3.19015 -29.08789,-5.58984 C 194.24632,617.62138 109.69954,535.22652 86.220703,458.08984 62.147305,378.99964 68.304511,320.49589 83.755859,273.71289 a 7.5598107,7.5598107 0 0 0 -5.654297,-9.77344 c -20.932419,-4.32318 -36.702064,-5.01932 -48.425781,-4.66601 24.177875,-23.21137 59.95984,-45.65416 84.572269,-58.66016 a 7.5598107,7.5598107 0 0 0 2.49023,-0.94922 c 0.003,-0.002 0.004,-0.006 0.008,-0.008 2.207,-1.32559 4.25712,-2.47034 6.11914,-3.43359 0.65503,-0.32074 1.35029,-0.67181 1.97852,-0.97266 38.0363,-16.42256 62.81171,-20.4248 77.57617,-20.53711 z m 424.35352,86.22656 c 3.34637,8.60018 6.62743,17.84252 9.70898,27.97852 24.83871,81.70073 -4.25066,196.1215 -59.3125,255.02344 -56.4564,60.39382 -110.19719,84.31613 -158.4375,94.32617 a 7.5598107,7.5598107 0 0 0 -4.5332,11.89844 c 10.86301,14.65625 23.87343,26.82394 35.33789,36.45898 -16.90483,-3.98566 -34.68331,-8.89685 -52.0957,-14.9043 -28.95009,-9.98804 -55.52962,-21.82217 -67.26953,-29.85937 -26.9666,-20.07146 -42.48389,-36.6668 -51.36329,-49.00781 -0.67646,-0.94019 -1.31446,-1.85372 -1.91601,-2.74414 -0.006,-0.009 -0.0113,-0.0181 -0.0176,-0.0273 -0.60122,-0.89051 -1.1648,-1.75568 -1.69531,-2.5957 -0.005,-0.008 -0.0104,-0.0152 -0.0156,-0.0234 -0.52927,-0.83922 -1.02335,-1.65338 -1.48633,-2.44141 -0.64763,-1.10232 -0.78857,-1.67082 -1.0625,-2.39453 -0.0132,-0.0349 -0.0232,-0.0658 -0.0371,-0.10156 -0.0992,-0.25807 -0.21966,-0.54194 -0.38671,-0.875 17.57192,4.5679 36.25537,-0.28359 51.95703,-7.99023 10.59013,-5.19778 19.85804,-11.4962 27.42968,-17.63672 -0.0658,-0.004 -0.1315,-0.008 -0.19726,-0.0117 30.95385,1.70116 61.85394,0.23124 87.19531,-4.46875 54.17695,-10.0481 92.01051,-34.35133 102.94531,-72.45313 1.71399,-5.97233 2.4498,-10.55487 3.47852,-21.60156 l 0.40039,-4.28125 c 0.0242,-0.0813 0.0401,-0.1666 0.0469,-0.25391 l 0.0644,-0.93359 0.42383,-4.54883 c 0.0613,-0.66644 0.0694,-1.33215 0.0312,-1.99414 l 1.14062,-16.36914 c 0.002,-0.034 0.003,-0.0655 0.004,-0.0976 l 0.2539,-2.51172 c 0.48511,-4.77717 2.40227,-28.54022 4.49805,-55.13086 l 3.45508,-43.83594 -1.37109,1.51172 c 5.15495,-5.69148 10.45812,-11.93798 15.59961,-18.34961 5.94918,8.09396 9.23703,17.35536 8.21289,27.92773 a 7.5598107,7.5598107 0 0 0 11.00585,7.4336 c 0,0 2.87606,-1.62078 6.02735,-4.67969 0.0432,-0.0419 0.0856,-0.0767 0.12891,-0.11914 0.008,-0.008 0.0156,-0.0138 0.0234,-0.0215 0.39335,-0.38588 0.79991,-0.80026 1.21875,-1.24219 2.13394,-2.25155 4.58098,-5.24953 7.17383,-9.18946 1.04065,-1.5813 2.10537,-3.31362 3.18164,-5.21093 0.47165,-0.83146 0.94371,-1.70238 1.41797,-2.60352 6.81891,-12.84636 13.93984,-32.42283 18.83594,-62.04883 z M 265.3125,320.25586 c -11.38866,-0.0372 -22.78195,7.3786 -26.17188,18.61914 -4.93723,14.18551 4.13838,31.11597 18.88477,34.52344 10.28829,2.6307 21.67963,-1.15623 28.13477,-9.63477 10.46729,-12.77333 5.48269,-34.25542 -9.75782,-40.85156 -3.49851,-1.80313 -7.29362,-2.64386 -11.08984,-2.65625 z m 186.50391,12.79687 c -12.08092,0.10144 -24.26552,6.30127 -35.46875,17.25391 a 11.338583,11.338583 0 0 0 -0.18555,16.0332 11.338583,11.338583 0 0 0 16.0332,0.18555 c 9.87638,-9.65545 16.33798,-11.4216 21.67383,-10.68164 5.33585,0.73996 12.04235,5.07873 19.51758,14.2832 a 11.338583,11.338583 0 0 0 15.95312,1.6543 11.338583,11.338583 0 0 0 1.65235,-15.94531 c -9.34977,-11.51263 -20.26043,-20.54277 -34.00781,-22.44922 -1.71843,-0.23831 -3.44213,-0.34848 -5.16797,-0.33399 z"
       transform="matrix(0.26458333,0,0,0.26458333,-171.78549,11.343979)"
       inkscape:label="lines" />
  </g>
</svg>
