<?xml version="1.0" encoding="UTF-8" standalone="no"?>
<svg
   xmlns:dc="http://purl.org/dc/elements/1.1/"
   xmlns:cc="http://creativecommons.org/ns#"
   xmlns:rdf="http://www.w3.org/1999/02/22-rdf-syntax-ns#"
   xmlns:svg="http://www.w3.org/2000/svg"
   xmlns="http://www.w3.org/2000/svg"
   xmlns:sodipodi="http://sodipodi.sourceforge.net/DTD/sodipodi-0.dtd"
   xmlns:inkscape="http://www.inkscape.org/namespaces/inkscape"
   width="190.11264mm"
   height="190.11264mm"
   viewBox="0 0 190.11264 190.11264"
   version="1.1"
   id="svg8"
   inkscape:version="1.0.1 (3bc2e813f5, 2020-09-07)"
   sodipodi:docname="gut_logo_vector.svg"
   inkscape:export-filename="C:\Users\Hen\Desktop\GUT_logo\gut_icon_128x128.png"
   inkscape:export-xdpi="17.10144"
   inkscape:export-ydpi="17.10144">
  <defs
     id="defs2" />
  <sodipodi:namedview
     id="base"
     pagecolor="#323232"
     bordercolor="#666666"
     borderopacity="1.0"
     inkscape:pageopacity="0"
     inkscape:pageshadow="2"
     inkscape:zoom="0.98994949"
     inkscape:cx="321.54146"
     inkscape:cy="434.13311"
     inkscape:document-units="mm"
     inkscape:current-layer="main"
     inkscape:document-rotation="0"
     showgrid="false"
     inkscape:pagecheckerboard="false"
     showborder="true"
     borderlayer="false"
     inkscape:showpageshadow="false"
     inkscape:window-width="2560"
     inkscape:window-height="1411"
     inkscape:window-x="-9"
     inkscape:window-y="-9"
     inkscape:window-maximized="1" />
  <metadata
     id="metadata5">
    <rdf:RDF>
      <cc:Work
         rdf:about="">
        <dc:format>image/svg+xml</dc:format>
        <dc:type
           rdf:resource="http://purl.org/dc/dcmitype/StillImage" />
        <dc:title />
      </cc:Work>
    </rdf:RDF>
  </metadata>
  <g
     inkscape:label="main"
     inkscape:groupmode="layer"
     id="main"
     transform="translate(171.78549,-11.343979)">
    <path
       id="lines"
       style="fill:#403f40;stroke-width:0.224454"
       d="m 358.75977,55.40625 c -5.87672,-0.04278 -11.81271,0.105708 -17.78907,0.443359 -71.71634,4.051816 -149.12272,35.185998 -196.46875,85.800781 -15.05255,16.09171 -26.88421,31.222 -36.30273,44.99219 -31.08088,15.95221 -79.664842,45.39765 -104.8027356,77.82812 -4.5061428,5.83548 1.1527422,14.01047 8.2011716,11.84766 0,0 4.453725,-1.45057 15.029297,-2.00781 9.115956,-0.48034 23.203475,0.33312 40.585938,3.29883 -14.286199,47.9482 -18.98813,107.55946 4.546875,184.88085 25.490113,83.74447 112.226314,168.26919 202.234374,189.19727 21.92619,5.09816 41.3488,7.81885 58.23828,9.05664 15.21405,8.29668 36.79281,17.16646 60.2793,25.26953 29.69485,10.24502 61.9401,18.9428 86.81055,21.90039 7.99356,0.94246 11.72792,-9.59851 4.92382,-13.89844 -24.00212,-15.20386 -37.42579,-28.71738 -50.58624,-43.67362 71.2485,-20.13327 108.44893,-49.05208 154.55304,-96.08028 59.7787,-63.94768 89.61032,-181.32765 62.73047,-269.74219 -6.56711,-21.60086 -13.94536,-39.8285 -21.33984,-55.10156 -0.53842,-16.33385 -3.53157,-36.62495 -5.67774,-58.01953 -2.73966,-27.31092 -4.06264,-56.0181 1.43945,-76.955081 1.99743,-7.605591 -7.50074,-12.826703 -12.85156,-7.064453 0,0 -24.92538,27.402564 -41.88476,61.048824 C 536.28825,112.53853 487.32997,79.1829 409.4668,61.105469 393.47888,57.393585 376.3899,55.534581 358.75977,55.40625 Z"
       transform="matrix(0.26458333,0,0,0.26458333,-171.78549,11.343979)"
       inkscape:label="lines"
       sodipodi:nodetypes="ssccccscsscsccccscscccss" />
    <path
       id="green"
       style="fill:#00d347;fill-opacity:1;stroke:none;stroke-width:15.1181;stroke-linecap:butt;stroke-linejoin:round;stroke-miterlimit:4;stroke-dasharray:none;stroke-opacity:1"
       inkscape:transform-center-x="-26.397906"
       inkscape:transform-center-y="28.201098"
       d="m 626.77344,260.93945 c -4.8961,29.626 -12.01703,49.20247 -18.83594,62.04883 -0.47426,0.90114 -0.94632,1.77206 -1.41797,2.60352 -1.07627,1.89731 -2.14099,3.62964 -3.18164,5.21093 -2.59285,3.93994 -5.03989,6.93792 -7.17383,9.18946 -0.41884,0.44194 -0.8254,0.85633 -1.21875,1.24219 -0.008,0.008 -0.0155,0.0159 -0.0234,0.0234 -0.0433,0.0423 -0.0857,0.0772 -0.12891,0.11914 -3.15129,3.05893 -6.02735,4.67969 -6.02735,4.67969 a 7.5598105,7.5598105 0 0 1 -11.00585,-7.43359 c 1.02414,-10.57236 -2.26373,-19.83378 -8.21289,-27.92774 -0.0348,0.0434 -0.0707,0.0855 -0.10547,0.12891 -1.23506,1.53911 -2.47711,3.06779 -3.72657,4.58203 -0.0164,0.0199 -0.0324,0.0406 -0.0488,0.0605 -0.0759,0.0919 -0.15262,0.18164 -0.22852,0.27343 -1.07892,1.30485 -2.16105,2.59476 -3.24414,3.87305 -0.33749,0.39847 -0.67418,0.79205 -1.01172,1.1875 -0.91275,1.06895 -1.82358,2.1239 -2.73437,3.16797 -0.31744,0.364 -0.63425,0.72921 -0.95118,1.08984 -1.0544,1.19948 -2.10508,2.38096 -3.15039,3.53907 -0.10045,0.11129 -0.20239,0.22896 -0.30273,0.33984 l 1.27539,-1.4043 -3.45508,43.83399 v 0.002 c -1.04783,13.29452 -2.05174,25.88285 -2.85351,35.74414 -5e-5,5.4e-4 4e-5,0.001 0,0.002 -0.80173,9.86064 -1.402,16.99442 -1.64454,19.38282 -3e-5,3.3e-4 4e-5,0.002 0,0.002 l -0.2539,2.50977 v 0.002 c -9.5e-4,0.0315 -0.002,0.0624 -0.004,0.0957 -4e-5,6.8e-4 4e-5,0.001 0,0.002 l -1.14062,16.36718 c 0.0191,0.33099 0.0264,0.66333 0.0215,0.9961 -10e-6,6.5e-4 1e-5,10e-4 0,0.002 -0.005,0.33212 -0.0221,0.66352 -0.0527,0.99609 -6e-5,6.5e-4 6e-5,10e-4 0,0.002 l -0.42383,4.54687 v 0.002 l -0.0644,0.93164 v 0.002 c -0.007,0.0866 -0.0229,0.1713 -0.0469,0.25195 -1.8e-4,6.1e-4 1.8e-4,10e-4 0,0.002 L 545,457.48828 v 0.002 c -0.2571,2.76072 -0.49591,5.11755 -0.73633,7.19336 -6e-5,5.6e-4 7e-5,10e-4 0,0.002 -0.015,0.12914 -0.0299,0.23628 -0.0449,0.36328 -0.20799,1.76375 -0.41955,3.32725 -0.64453,4.76172 -0.0192,0.1222 -0.0372,0.26042 -0.0566,0.38086 -10e-5,6e-4 10e-5,10e-4 0,0.002 -0.13164,0.81753 -0.26926,1.59591 -0.41406,2.34961 -1.2e-4,6.1e-4 1.1e-4,10e-4 0,0.002 -0.14482,0.75362 -0.29801,1.4827 -0.46094,2.20313 -1.4e-4,6.1e-4 1.4e-4,10e-4 0,0.002 -0.16295,0.7204 -0.33547,1.43256 -0.52149,2.15039 -1.6e-4,6.2e-4 1.6e-4,0.001 0,0.002 -0.18604,0.71787 -0.38554,1.44158 -0.59961,2.1875 -1.7e-4,6.2e-4 1.8e-4,0.001 0,0.002 -0.34156,1.19006 -0.70978,2.36616 -1.10351,3.52929 -2e-4,5.9e-4 2e-4,10e-4 0,0.002 -0.39376,1.16312 -0.81449,2.31306 -1.25977,3.44922 -2.2e-4,5.6e-4 2.3e-4,0.001 0,0.002 -0.4453,1.13615 -0.91593,2.25802 -1.41211,3.36719 -2.4e-4,5.4e-4 2.5e-4,0.001 0,0.002 -0.4962,1.10916 -1.01996,2.20497 -1.5664,3.28711 -2.7e-4,5.2e-4 2.6e-4,0.001 0,0.002 -0.54647,1.08214 -1.11683,2.14999 -1.71289,3.20508 -2.9e-4,5e-4 2.8e-4,0.001 0,0.002 -0.59609,1.05509 -1.21825,2.09699 -1.86328,3.125 -3e-4,4.8e-4 2.9e-4,10e-4 0,0.002 -0.64507,1.02801 -1.3164,2.04206 -2.00977,3.04297 -3.1e-4,4.4e-4 3.1e-4,0.002 0,0.002 -0.6934,1.00091 -1.41128,1.98716 -2.15234,2.96094 -3.2e-4,4.2e-4 3.2e-4,0.002 0,0.002 -0.7411,0.97378 -1.50681,1.93229 -2.29493,2.8789 -3.2e-4,4e-4 3.3e-4,0.002 0,0.002 -0.78815,0.94662 -1.60101,1.8794 -2.43554,2.79883 -3.3e-4,3.6e-4 3.3e-4,0.002 0,0.002 -0.83457,0.91944 -1.69197,1.82458 -2.57227,2.7168 -4.40283,4.46248 -9.37435,8.58387 -14.87305,12.36328 -7.5e-4,5.2e-4 -10e-4,0.001 -0.002,0.002 -6.59836,4.53501 -13.95713,8.57712 -22.00586,12.12305 -7.9e-4,3.5e-4 -10e-4,0.002 -0.002,0.002 -0.77211,0.34014 -1.56485,0.66509 -2.34961,0.99609 -0.96347,0.4064 -1.93369,0.8066 -2.91602,1.19922 -10.72985,4.28853 -22.56514,7.76416 -35.38281,10.40235 -1.66078,0.34183 -3.33822,0.67037 -5.03125,0.98437 -1.86078,0.34512 -3.75919,0.66821 -5.67773,0.97852 -0.52003,0.0841 -1.0482,0.16253 -1.57227,0.24414 -1.38412,0.2154 -2.7802,0.42155 -4.1914,0.61914 -0.68636,0.0962 -1.37393,0.1912 -2.06641,0.2832 -1.36652,0.18133 -2.74742,0.35264 -4.13672,0.51758 -0.62313,0.0741 -1.23967,0.15184 -1.86719,0.22266 -1.91963,0.21624 -3.85627,0.42002 -5.81445,0.60546 -0.78988,0.075 -1.59294,0.139 -2.38867,0.20899 -1.2077,0.10593 -2.41623,0.21028 -3.63672,0.30469 -1.07378,0.0833 -2.15521,0.15799 -3.23828,0.23242 -0.9262,0.0634 -1.85451,0.12475 -2.78711,0.18164 -1.17889,0.0722 -2.3584,0.1413 -3.54688,0.20312 -0.83817,0.0434 -1.68275,0.079 -2.52539,0.11719 -4.59462,0.20956 -9.24995,0.34252 -13.95312,0.39844 -0.47023,0.005 -0.93908,0.0136 -1.41016,0.0176 -1.61752,0.0139 -3.23864,0.0159 -4.86523,0.0117 -0.31943,-8.8e-4 -0.63925,-0.002 -0.95899,-0.004 -7.38126,-0.0349 -14.83808,-0.25596 -22.30468,-0.66211 -0.0847,-0.005 -0.16927,-0.007 -0.25391,-0.0117 0.0658,0.004 0.13147,0.008 0.19726,0.0117 -7.57163,6.14052 -16.83955,12.43892 -27.42968,17.63672 -15.70166,7.70676 -34.38509,12.55813 -51.95703,7.99023 0.16713,0.33306 0.28732,0.61686 0.38671,0.875 0.0151,0.0359 0.022,0.0675 0.0371,0.10157 0.27391,0.7237 0.41485,1.29219 1.0625,2.39453 0.46299,0.78803 0.95706,1.6022 1.48633,2.4414 0.005,0.008 0.0107,0.0139 0.0156,0.0215 0.53051,0.84004 1.09409,1.70521 1.69531,2.5957 0.006,0.008 0.0115,0.0199 0.0176,0.0273 0.60155,0.8904 1.23955,1.80394 1.91601,2.74414 8.8794,12.34098 24.39668,28.93632 51.36329,49.00781 11.7399,8.0372 38.31943,19.87133 67.26953,29.85937 17.41239,6.00745 35.19087,10.91864 52.0957,14.9043 -11.46446,-9.63504 -24.47488,-21.80273 -35.33789,-36.45898 a 7.5598105,7.5598105 0 0 1 4.5332,-11.89844 c 48.24031,-10.01004 101.9811,-33.93235 158.4375,-94.32617 55.06184,-58.90194 84.15121,-173.32269 59.3125,-255.02344 -3.08155,-10.136 -6.36261,-19.37834 -9.70898,-27.97852 z"
       inkscape:label="green"
       transform="matrix(0.26458333,0,0,0.26458333,-171.78549,11.343979)" />
    <path
       id="purple"
       style="fill:#ba2c9c;fill-opacity:1;stroke:none;stroke-width:15.1181;stroke-linecap:butt;stroke-linejoin:round;stroke-miterlimit:4;stroke-dasharray:none;stroke-opacity:1"
       inkscape:transform-center-x="43.583092"
       inkscape:transform-center-y="13.358686"
       d="m 202.41992,174.71289 c -14.76446,0.11231 -39.53987,4.11455 -77.57617,20.53711 -0.62823,0.30085 -1.32349,0.65193 -1.97852,0.97266 -1.86202,0.96324 -3.91212,2.108 -6.11914,3.43359 -0.004,0.002 -0.005,0.006 -0.008,0.008 a 7.5598105,7.5598105 0 0 1 -2.49023,0.94922 c -24.612441,13.006 -60.394404,35.44879 -84.572269,58.66016 11.723717,-0.35331 27.493398,0.34283 48.425781,4.66601 a 7.5598105,7.5598105 0 0 1 5.654297,9.77344 c -15.45135,46.783 -21.608554,105.28671 2.464844,184.37695 23.478837,77.13668 108.027317,159.53133 191.201177,178.8711 10.32067,2.3997 19.96538,4.18749 29.08789,5.58984 -23.12459,-18.98513 -36.50777,-34.90037 -44.23633,-47.21094 -0.57385,-0.90674 -1.12218,-1.79824 -1.63086,-2.66406 -3.85799,-6.56674 -6.05386,-11.99732 -7.29102,-16.16406 -0.17389,-0.58473 -0.32846,-1.1432 -0.46679,-1.67774 -0.001,-0.004 -0.003,-0.003 -0.004,-0.006 -0.004,-0.008 -0.004,-0.0159 -0.006,-0.0234 -0.1372,-0.53276 -0.25468,-1.05113 -0.35938,-1.55078 -0.75105,-3.5737 -0.7246,-6.18555 -0.7246,-6.18555 a 7.5598105,7.5598105 0 0 1 11.94336,-5.80859 c 15.91414,11.36549 35.28708,7.86384 53.74804,-1.19727 3.18489,-1.56321 6.30017,-3.30827 9.31641,-5.14648 0.42629,-0.26298 0.84731,-0.52878 1.27148,-0.79297 -0.67428,-0.0726 -1.35246,-0.13497 -2.02539,-0.21094 -4.33107,-0.488 -8.65135,-1.04257 -12.9414,-1.64844 -0.31163,-0.044 -0.62625,-0.0824 -0.9375,-0.12695 -6.4e-4,-9e-5 -10e-4,9e-5 -0.002,0 -0.30112,-0.0431 -0.59768,-0.093 -0.89844,-0.13672 -3.96141,-0.57575 -7.8873,-1.19875 -11.76171,-1.86719 -0.32056,-0.0553 -0.647,-0.1062 -0.9668,-0.16211 -6.4e-4,-1.1e-4 -0.001,1.1e-4 -0.002,0 -0.40928,-0.0716 -0.80881,-0.15011 -1.2168,-0.22265 -3.61039,-0.642 -7.16636,-1.32274 -10.65625,-2.03907 -0.43118,-0.0885 -0.8737,-0.17018 -1.30273,-0.25976 -6.3e-4,-1.3e-4 -0.001,1.3e-4 -0.002,0 -2.14727,-0.44836 -4.267,-0.91002 -6.35547,-1.38477 -2.08848,-0.47476 -4.14478,-0.96309 -6.16601,-1.46289 -6.1657,-1.52461 -12.12363,-3.16968 -17.86914,-4.93945 -0.61106,-0.18822 -1.20431,-0.38712 -1.81055,-0.57813 -1.29379,-0.40763 -2.59154,-0.81403 -3.86328,-1.23437 -1.86752,-0.61723 -3.70965,-1.24788 -5.5293,-1.89258 -3.63987,-1.28962 -7.18297,-2.63324 -10.6289,-4.0332 -1.72272,-0.69985 -3.42011,-1.41309 -5.09375,-2.14063 -3.34783,-1.45534 -6.597,-2.96465 -9.7461,-4.53125 -1.57431,-0.78315 -3.12243,-1.58151 -4.64648,-2.39257 -7.62022,-4.05539 -14.60956,-8.45969 -20.94336,-13.21876 -1.26717,-0.95211 -2.50801,-1.92003 -3.72266,-2.90429 -1.21388,-0.98361 -2.40063,-1.983 -3.56054,-2.99805 -3.7e-4,-3.2e-4 -0.002,3.2e-4 -0.002,0 -1.16027,-1.01538 -2.29173,-2.04757 -3.39648,-3.09375 -1.10476,-1.04619 -2.18078,-2.10725 -3.22852,-3.18359 -1.04807,-1.07664 -2.06715,-2.1673 -3.05664,-3.27344 -2.47297,-2.7645 -4.76099,-5.61899 -6.85156,-8.56055 -3.1e-4,-4.3e-4 3.1e-4,-0.002 0,-0.002 -0.41812,-0.58832 -0.82821,-1.17828 -1.23047,-1.77344 -0.8045,-1.19029 -1.57649,-2.39419 -2.31641,-3.61133 -2.9e-4,-4.8e-4 3e-4,-10e-4 0,-0.002 -1.10988,-1.82574 -2.14711,-3.68016 -3.10742,-5.56445 -0.6402,-1.25618 -1.24653,-2.52527 -1.81836,-3.80664 -0.57183,-1.28138 -1.10938,-2.57494 -1.61133,-3.88086 -0.50195,-1.30592 -0.96788,-2.62333 -1.39843,-3.95313 -1.9e-4,-5.9e-4 1.9e-4,-0.001 0,-0.002 -0.21528,-0.66491 -0.42199,-1.3312 -0.61914,-2.00195 -0.3943,-1.3415 -0.75164,-2.69421 -1.07227,-4.0586 -1.4e-4,-6.2e-4 1.5e-4,-0.001 0,-0.002 -0.16017,-0.68158 -0.31162,-1.36557 -0.45312,-2.05273 -1.3e-4,-6.3e-4 1.2e-4,-0.001 0,-0.002 -0.14162,-0.6878 -0.27376,-1.377 -0.39649,-2.07031 -0.34301,-1.9377 -0.61011,-3.74125 -0.80469,-5.55273 -0.0972,-0.90502 -0.17687,-1.81318 -0.23828,-2.74024 -4e-5,-6.3e-4 4e-5,-10e-4 0,-0.002 -0.0614,-0.92775 -0.10439,-1.87375 -0.13086,-2.85938 -0.10605,-3.94294 0.0636,-8.49285 0.48243,-14.79297 l 0.67968,-10.24804 c 0.0465,-0.70103 0.15093,-1.39163 0.30664,-2.07032 l 0.88672,-11.13867 c -0.0193,-0.50358 -0.0104,-1.00977 0.0293,-1.51562 l 4.3164,-54.86524 3.9668,-50.41406 -0.42187,-0.65234 c -0.71828,-1.10617 -1.45991,-2.26847 -2.21875,-3.47657 -0.75858,-1.20758 -1.53337,-2.45912 -2.31836,-3.74414 -1.56986,-2.57013 -3.17904,-5.27034 -4.76953,-8.0039 -2.386,-4.10016 -4.7318,-8.27435 -6.84571,-12.19336 -0.7046,-1.30636 -1.38321,-2.58484 -2.02929,-3.82227 L 143.75,260.91016 c -0.28742,-0.55054 -0.53231,-1.11451 -0.73633,-1.68946 -0.10222,-0.28808 -0.19398,-0.5785 -0.27539,-0.87109 -0.0813,-0.29196 -0.15228,-0.5855 -0.21289,-0.88086 -0.66673,-3.24865 -0.0848,-6.6708 1.69141,-9.54883 2.8e-4,-4.6e-4 -2.9e-4,-10e-4 0,-0.002 0.16153,-0.26167 0.3324,-0.51741 0.51367,-0.76953 l 1.9375,-2.69336 c 5.49025,-7.6348 13.20346,-16.99103 20.29101,-24.66406 1.40132,-1.51709 2.9811,-3.18318 4.64649,-4.9043 1.66571,-1.72146 3.41705,-3.49684 5.16015,-5.23438 3.48519,-3.47406 6.93864,-6.79424 9.61329,-9.20507 l 1.33203,-1.20118 c 0.33557,-0.3025 0.68831,-0.57735 1.04687,-0.83984 0.0948,-0.0691 0.19085,-0.13491 0.28711,-0.20117 0.31288,-0.21645 0.63197,-0.41882 0.95899,-0.60547 0.0504,-0.0286 0.0996,-0.06 0.15039,-0.0879 0.82817,-0.45823 1.69689,-0.81673 2.58984,-1.08399 0.005,-0.002 0.0103,-0.004 0.0156,-0.006 3.00926,-7.88246 7.30199,-15.22882 13.29492,-21.3125 -1.46997,-0.0873 -1.86259,-0.4101 -3.63477,-0.39649 z"
       transform="matrix(0.26458333,0,0,0.26458333,-171.78549,11.343979)"
       inkscape:label="purple" />
    <path
       id="red"
       style="fill:#fe1f00;fill-opacity:1;stroke:none;stroke-width:15.1181;stroke-linecap:butt;stroke-linejoin:round;stroke-miterlimit:4;stroke-dasharray:none;stroke-opacity:1"
       inkscape:transform-center-x="-3.0473804"
       inkscape:transform-center-y="-42.586715"
       d="m 358.76172,70.748047 c -5.53212,-0.0054 -11.13487,0.170467 -16.78711,0.523437 -67.8269,4.235441 -142.68679,33.933836 -186.4375,80.705076 -7.23693,7.73654 -13.59853,15.20039 -19.37305,22.39844 26.31534,-9.89901 45.96417,-13.69887 60.28906,-14.56445 0.0476,-0.003 0.0914,-0.005 0.13868,-0.008 0.83561,-0.0494 1.67505,-0.10063 2.47461,-0.13085 1.10377,-0.0459 2.181,-0.076 3.21289,-0.084 4.35329,-0.0331 8.11447,0.22106 11.32812,0.63281 3.20969,0.40793 5.87467,0.97311 8.03516,1.57422 4.32102,1.20223 7.23437,2.9375 7.23437,2.9375 a 7.5598105,7.5598105 0 0 1 -0.9375,13.25196 c -10.0905,4.5915 -16.59502,12.53553 -20.59179,22.29101 l 0.26757,0.16797 c 3.92142,2.45069 7.88894,5.07292 11.87305,7.81836 4.5e-4,3.1e-4 0.002,-3.1e-4 0.002,0 3.98398,2.74528 7.98232,5.61344 11.96485,8.55273 l 0.20117,0.14844 0.10547,-0.0801 c 2.50889,-1.75198 5.48487,-3.74142 9.6914,-6.46484 6.60949,-4.27927 11.58676,-7.09367 18.50586,-10.62891 -0.17113,-4.98494 -0.24907,-10.41964 -0.21875,-16.21094 0.0303,-5.79115 0.16889,-11.93917 0.43165,-18.35156 l 0.1621,-3.9375 c 0.14798,-3.60605 1.75947,-6.91406 4.34571,-9.24023 0.47016,-0.42298 0.97231,-0.81403 1.5039,-1.16797 4.6e-4,-3.1e-4 0.002,3.1e-4 0.002,0 0.79701,-0.53051 1.6596,-0.97981 2.57812,-1.33203 l 3.33399,-1.27735 c 12.99666,-4.98334 26.73691,-8.78821 41.95703,-11.66992 2.7092,-0.51294 6.19718,-1.10115 9.15039,-1.5664 1.47655,-0.23262 2.79793,-0.43122 3.87695,-0.57813 0.53949,-0.0734 0.99173,-0.13186 1.54297,-0.1875 0.2756,-0.0278 0.53519,-0.0597 1.13867,-0.082 0.3018,-0.0112 0.63667,-0.0413 1.55078,0.0273 0.45706,0.0341 1.02847,0.0565 2.25977,0.36719 0.30784,0.0777 0.65899,0.17003 1.08398,0.31641 0.42531,0.1466 0.92282,0.34628 1.52344,0.64258 0.59966,0.2958 1.30903,0.69159 2.13281,1.3164 0.82326,0.62445 2.69136,2.74923 2.69336,2.75196 l 0.002,0.002 c 0.47113,0.64887 0.76776,1.07023 0.94726,1.33789 0.17893,0.26682 0.24103,0.37962 0.24805,0.41797 2e-5,1.3e-4 -2e-5,0.002 0,0.002 0.007,0.038 -0.0423,-4.9e-4 -0.0899,-0.041 -0.0476,-0.0406 -0.0931,-0.0831 -0.0762,-0.0508 0.0673,0.12945 0.10258,0.19184 0.13282,0.25586 0.0643,0.12828 0.11493,0.23353 0.17578,0.35742 0.12128,0.2479 0.27007,0.5549 0.44922,0.92579 0.35811,0.74174 0.82999,1.72828 1.34374,2.80468 1.02945,2.15695 2.09052,4.46787 3.16211,6.87696 2.14319,4.81817 4.33047,10.03141 6.39844,15.20898 1.03399,2.58879 2.03795,5.1692 2.99219,7.68555 2.00128,-0.0165 4.00534,0.002 6.22852,0.082 1.11153,0.0397 2.27757,0.0947 3.52539,0.16797 1.24845,0.0734 2.57684,0.164 4.01562,0.27734 2.86536,0.22577 5.34107,0.47395 7.60156,0.74805 2.26051,0.27392 4.30576,0.57412 6.3125,0.9043 1.37982,-2.40926 2.85125,-4.92288 4.36328,-7.45508 3.0242,-5.06445 6.21313,-10.20452 9.16993,-14.74219 1.47833,-2.26881 2.89851,-4.38706 4.21093,-6.26953 0.50181,-0.71977 0.96504,-1.37845 1.32032,-1.88281 0.17775,-0.2522 0.32619,-0.4623 0.45507,-0.64258 0.0643,-0.0901 0.12061,-0.16974 0.19922,-0.27735 0.0393,-0.0538 0.081,-0.10978 0.16797,-0.22461 0.0225,-0.0298 0.004,-0.0226 -0.0117,-0.0215 -0.008,8.3e-4 0.003,-0.0178 0.002,-0.0254 -7.9e-4,-0.006 -0.0125,-0.003 0,-0.0234 5e-5,-9e-5 -6e-5,-0.002 0,-0.002 0.063,-0.098 0.30522,-0.37608 1.06445,-1.16016 l 0.002,-0.002 c 4.2e-4,-4e-4 1.65155,-1.48119 2.39453,-1.95313 0.74287,-0.47192 1.4089,-0.79389 1.99219,-1.0371 1.16648,-0.48646 2.01527,-0.67321 2.6875,-0.79688 1.34449,-0.24737 2.04108,-0.22473 2.58399,-0.2168 0.27165,0.004 0.50241,0.0125 0.69921,0.0234 0.14784,0.008 0.27535,0.0183 0.39063,0.0293 h 0.004 c 0.3459,0.0326 0.56354,0.0725 0.76367,0.10351 0.71175,0.10904 0.97829,0.18106 1.24414,0.24414 0.5321,0.12658 0.86791,0.2238 1.25976,0.33594 0.78409,0.22426 1.66386,0.49282 2.68555,0.81445 2.04329,0.64329 4.58229,1.47729 6.99805,2.3086 11.85459,4.0794 22.91671,8.69997 32.99414,13.8164 3.35923,1.70543 6.60856,3.46523 9.74219,5.2793 l 3.52148,2.03906 c 1.70184,0.98516 3.1233,2.31416 4.20313,3.86524 0.17995,0.25853 0.35102,0.52266 0.51171,0.79297 0.48253,0.81127 0.87501,1.67326 1.17383,2.57031 0.0995,0.29886 0.18957,0.60012 0.26758,0.90625 0.0169,0.0663 0.0271,0.13454 0.043,0.20117 0.13093,0.54903 0.23156,1.10547 0.29101,1.67188 0.0666,0.63451 0.0879,1.27799 0.0605,1.92578 -0.0137,0.32389 -0.0401,0.64909 -0.0781,0.97461 l -0.45703,3.91406 c -0.37295,3.19079 -0.76168,6.28182 -1.16602,9.28516 -8e-5,6.2e-4 8e-5,0.001 0,0.002 -0.8086,6.00594 -1.67962,11.65474 -2.60352,17.01367 -10e-5,6.2e-4 1.1e-4,0.001 0,0.002 -0.46189,2.67908 -0.93763,5.28706 -1.42578,7.83008 3.36096,2.4415 5.78018,4.2453 7.96289,5.97852 2.18272,1.73322 4.13008,3.39582 6.54493,5.55078 h 0.002 c 4.67493,4.17189 7.93054,7.18055 10.64453,9.80273 l -4.90039,2.65039 c 0.006,0.007 0.0115,0.0123 0.0176,0.0195 0.0125,-0.007 0.0246,-0.013 0.0371,-0.0195 1.66415,-0.86307 3.29526,-1.67016 4.95898,-2.53515 1.07145,1.03745 2.07171,2.02449 3.01172,2.98047 0.94043,0.95665 1.81981,1.88197 2.64453,2.79687 l -5.34961,-5.93555 c 3.75014,-1.94587 7.44459,-3.79576 11.10352,-5.57421 1.73883,-0.84514 3.46566,-1.66357 5.18359,-2.46485 1.15611,-0.53926 2.32023,-1.09535 3.4668,-1.61328 7.9e-4,-3.6e-4 0.001,-0.002 0.002,-0.002 2.14534,-0.96908 4.27312,-1.89868 6.38477,-2.78711 l 4.45898,-1.87695 c 0.68631,-0.2887 1.38539,-0.51545 2.0918,-0.68165 1.41276,-0.3324 2.85245,-0.42269 4.26172,-0.2871 0.7047,0.0678 1.40109,0.19178 2.08398,0.37109 0.68282,0.17929 1.35296,0.41405 2,0.70117 0.64711,0.28714 1.27178,0.62628 1.86914,1.01758 0.29865,0.19564 0.58945,0.404 0.87305,0.625 4.2e-4,3.3e-4 0.002,-3.3e-4 0.002,0 0.28319,0.22073 0.55778,0.45562 0.82422,0.70117 0.53406,0.49207 1.03202,1.03207 1.48828,1.62109 l 2.6543,3.42774 c 3.12675,4.03726 6.12347,8.07016 8.97851,12.08789 3.1e-4,4.3e-4 -3e-4,0.002 0,0.002 2.8547,4.01729 5.56943,8.01748 8.13086,11.98828 2.9e-4,4.6e-4 -2.9e-4,0.002 0,0.002 2.56138,3.97076 4.97029,7.91128 7.2168,11.80859 4.4e-4,7.6e-4 0.002,0.001 0.002,0.002 1.12291,1.9481 2.20591,3.88586 3.2461,5.81055 2.6e-4,4.9e-4 -2.7e-4,0.001 0,0.002 1.0403,1.92494 2.03928,3.83817 2.99414,5.73633 l 1.49414,2.97266 c 0.28077,0.55802 0.51882,1.12957 0.71484,1.71094 0.39205,1.16272 0.61608,2.36289 0.67383,3.5664 0.0866,1.80529 -0.19977,3.61653 -0.84766,5.31641 -2.2e-4,5.8e-4 2.2e-4,10e-4 0,0.002 -0.21583,0.56604 -0.47186,1.1194 -0.76757,1.65625 -2.9e-4,5.1e-4 2.8e-4,10e-4 0,0.002 -0.14778,0.26818 -0.30705,0.53174 -0.47461,0.79101 -3.1e-4,4.7e-4 3e-4,10e-4 0,0.002 -0.16762,0.25928 -0.34589,0.51442 -0.53321,0.76368 l -2.24414,2.98437 c 5.50016,6.6588 9.85699,14.20507 12.1836,22.62891 0.80862,-1.22665 1.28616,-1.40408 2.1582,-2.94141 7.28023,-12.83435 16.20368,-36.28079 21.00195,-77.38281 1.07372,-14.02988 -2.68537,-40.09712 -5.4707,-67.86328 -1.81408,-18.08411 -2.96765,-36.9205 -1.94727,-54.74414 -9.08722,12.18435 -19.9569,28.54206 -27.40234,45.70312 a 7.5598105,7.5598105 0 0 1 -12.57813,2.01367 C 534.1641,129.10404 486.57274,94.530517 406.04297,75.833984 391.31662,72.415001 375.35808,70.764299 358.76172,70.748047 Z"
       transform="matrix(0.26458333,0,0,0.26458333,-171.78549,11.343979)"
       inkscape:label="red" />
    <path
       id="blue"
       style="fill:#3f8cbc;stroke-width:0.224809;stroke-miterlimit:4;stroke-dasharray:none"
       inkscape:label="blue"
       d="m 330.37305,147.33789 c -0.051,-0.0706 -2.28111,0.24102 -5.11719,0.6875 -1.41865,0.22348 -2.98875,0.48032 -4.51367,0.74023 -1.52342,0.25955 -3.00204,0.52181 -4.23828,0.75586 -7.28364,1.37907 -14.1581,2.96746 -20.73633,4.79493 -1.64451,0.45682 -3.27161,0.92871 -4.88086,1.41601 -4.82725,1.46186 -9.50463,3.06277 -14.07813,4.81641 l -3.33398,1.27929 -0.16211,3.9375 c -0.14627,3.57006 -0.25928,7.0867 -0.33789,10.50977 -0.079,3.42376 -0.12343,6.75256 -0.13477,9.94922 -0.0227,6.39216 0.0916,12.24972 0.3418,17.25391 0.0933,1.86483 0.15354,3.59188 0.13086,3.83789 -0.004,0.0428 -0.0264,0.0909 -0.0684,0.14648 -0.12926,0.16679 -0.44792,0.39995 -1.03711,0.74414 -0.78557,0.45893 -2.05152,1.11623 -3.98437,2.08399 -2.0603,1.03152 -3.8669,1.95527 -5.53125,2.83203 -3.32867,1.75327 -6.0855,3.32214 -9.15039,5.20703 -1.53249,0.94255 -3.14293,1.96383 -4.93946,3.12695 -3.87125,2.50639 -6.62487,4.32586 -8.84179,5.85938 -2.21692,1.53351 -3.89709,2.78106 -5.62305,4.14648 l -2.41602,1.91211 -3.27929,-2.49609 c -2.313,-1.76133 -4.63928,-3.49294 -6.96875,-5.1875 -6.98839,-5.0837 -14.00986,-9.83825 -20.82227,-14.09571 l -4.13086,-2.58203 -1.33398,1.20117 c -2.36311,2.13007 -5.69964,5.34466 -9.09766,8.73047 -3.3984,3.38633 -6.85922,6.94458 -9.4668,9.76758 -1.66919,1.80706 -3.39392,3.73671 -5.12109,5.72461 0,0 0,0.002 0,0.002 -3.45396,3.97548 -6.91692,8.18094 -9.95898,12.09766 0,0 0,0.002 0,0.002 -1.52081,1.9581 -2.93836,3.84384 -4.19532,5.5918 l -1.9375,2.69531 2.00586,3.83985 c 0.6147,1.17733 1.26452,2.40086 1.94336,3.6582 0,0 0.002,0.002 0.002,0.002 0.67842,1.25662 1.38497,2.54667 2.11132,3.85547 0,0 0,0.002 0,0.002 1.45334,2.61873 2.9868,5.31528 4.53516,7.97657 2.02696,3.48384 4.06947,6.87815 6.00391,9.99609 0.28233,0.45502 0.57475,0.93384 0.85156,1.375 0,0 0,0.002 0,0.002 0.72423,1.15426 1.42811,2.25866 2.10351,3.29883 l 2.85352,4.39453 -4.31641,54.86524 -4.3164,54.86328 -1.21094,14.5664 -0.68164,10.24805 c -0.515,7.74936 -0.67912,11.90826 -0.41992,15.68945 0.15571,2.2687 0.46331,4.40195 0.93945,7.0918 0.20372,1.15034 0.43754,2.29312 0.70312,3.42774 0.53126,2.26919 1.18628,4.50671 1.9629,6.71093 0.77658,2.20422 1.67477,4.375 2.69336,6.51172 2.0372,4.27344 4.5559,8.41017 7.54101,12.39844 1.49254,1.99415 3.10169,3.95005 4.82617,5.86914 0,0 0,0.002 0,0.002 1.72392,1.91838 3.56331,3.79977 5.51563,5.64063 1.95333,1.8418 4.02055,3.64262 6.19922,5.40429 1.0891,0.88071 2.20479,1.75119 3.34961,2.61133 0,0 0.002,0 0.002,0 3.434,2.58025 7.1175,5.06889 11.04492,7.45899 1.30976,0.79706 2.64596,1.58212 4.00977,2.35742 2.72609,1.54976 5.56047,3.05675 8.5,4.51758 2.94054,1.46135 5.98599,2.87624 9.13672,4.24609 1.57508,0.68481 3.17576,1.35808 4.80273,2.01953 1.62754,0.66168 3.27993,1.3112 4.95898,1.94922 5.03535,1.91339 10.30192,3.71925 15.79297,5.41406 1.83035,0.56493 3.68429,1.11819 5.56446,1.65821 0,0 0.002,0 0.002,0 1.8796,0.53983 3.78397,1.06741 5.71289,1.58203 1.93013,0.51496 3.88417,1.01648 5.86328,1.50586 15.49606,3.83176 33.47343,6.97596 51.52344,9.00976 v -0.002 c 4.71435,0.53117 9.47197,0.98254 14.24804,1.35547 7.16418,0.55937 14.36894,0.94226 21.53126,1.14844 0,0 0.002,0 0.002,0 4.77418,0.13757 9.52939,0.19625 14.24023,0.17773 4.71152,-0.0189 9.38042,-0.11401 13.97852,-0.28711 4.59806,-0.17272 9.12595,-0.42153 13.56054,-0.74805 4.43464,-0.32655 8.77501,-0.72989 12.9961,-1.20898 2.11056,-0.23962 4.19046,-0.49786 6.23828,-0.77539 4.09555,-0.55502 8.0602,-1.18653 11.86719,-1.89258 4.83935,-0.89756 9.50503,-1.90163 13.99609,-3.01172 2.99404,-0.74007 5.91073,-1.52809 8.74805,-2.36133 1.41866,-0.41661 2.81807,-0.84345 4.19726,-1.2832 2.39358,-0.76312 4.71634,-1.56825 6.99024,-2.40039 1.6563,-0.60616 3.29242,-1.2247 4.88476,-1.86719 12.59566,-5.08187 23.18478,-11.29665 31.66993,-18.57617 1.69705,-1.45602 3.30988,-2.95334 4.83789,-4.49414 1.52799,-1.54076 2.97268,-3.12357 4.33007,-4.74805 0.67871,-0.81222 1.33495,-1.63578 1.97071,-2.46875 1.27151,-1.66594 2.45804,-3.37298 3.55664,-5.12109 0.5493,-0.87402 1.07625,-1.75799 1.58203,-2.65234 1.51733,-2.68313 2.83874,-5.45848 3.96094,-8.32227 0.74813,-1.90919 1.40793,-3.85752 1.97851,-5.8457 0.39052,-1.36086 0.71614,-2.55976 1,-3.76172 0,0 0,-0.002 0,-0.002 0.142,-0.60129 0.27273,-1.2021 0.39649,-1.82618 0.12363,-0.62403 0.24052,-1.27046 0.35156,-1.95898 0.44405,-2.75407 0.80957,-6.19056 1.27734,-11.64453 l 1.76758,-20.58985 0.7793,-14.55273 0.66211,-6.5293 c 0.36461,-3.59153 1.54462,-17.69304 3.63867,-44.26172 l 3.80664,-48.30664 1.64062,-1.81054 c 1.90723,-2.10572 3.84268,-4.29866 5.78711,-6.55469 1.94445,-2.25603 3.89857,-4.57631 5.83985,-6.93359 2.91167,-3.53582 5.79695,-7.15769 8.58789,-10.78321 0,0 0,-0.002 0,-0.002 0.93041,-1.20864 1.85093,-2.41672 2.75781,-3.62305 l 3.56641,-4.74414 -1.4961,-2.97265 c -1.78883,-3.55556 -3.75575,-7.1899 -5.88671,-10.88477 0,0 0,-0.002 0,-0.002 -2.13104,-3.69493 -4.42696,-7.4497 -6.87696,-11.24805 0,0 0,-0.002 0,-0.002 -1.22469,-1.89868 -2.48901,-3.80878 -3.78906,-5.72657 0,0 -0.002,-0.002 -0.002,-0.002 -3.90177,-5.75564 -8.13567,-11.58653 -12.66407,-17.43359 l -2.65234,-3.42383 -4.45898,1.875 c -2.13429,0.89795 -4.28822,1.84005 -6.45508,2.81055 -0.39453,0.17669 -0.78589,0.3462 -1.18164,0.52539 -1.28413,0.58141 -2.57515,1.17726 -3.87305,1.78515 -2.16902,1.01584 -4.36522,2.07752 -6.57813,3.16993 -1.76119,0.8694 -3.53137,1.75405 -5.32421,2.67382 -2.69651,1.38345 -5.43125,2.82616 -8.20899,4.32813 l -2.57226,1.39062 h -0.002 l -1.46289,-1.62304 c -0.82179,-0.91165 -1.67299,-1.81883 -2.61719,-2.78321 -2.83254,-2.89312 -6.50795,-6.30258 -12.78515,-11.90429 -3.62441,-3.23436 -5.67827,-4.95113 -9.48047,-7.78321 -1.26718,-0.94385 -2.72741,-2.01212 -4.50586,-3.30078 -3.10326,-2.24864 -5.76913,-4.23177 -5.92578,-4.4082 0,0 -0.002,0 -0.002,0 -0.0596,-0.0673 -0.0991,-0.15639 -0.11524,-0.30274 -0.0163,-0.14634 -0.008,-0.3498 0.0274,-0.64257 0.0703,-0.58534 0.25164,-1.53157 0.57617,-3.10743 0.5518,-2.67962 1.0859,-5.46898 1.60351,-8.36718 0,0 0,-0.002 0,-0.002 0.038,-0.21286 0.0754,-0.43634 0.11328,-0.65039 0.99249,-5.61573 1.92362,-11.63048 2.79102,-18.07031 0.45027,-3.34288 0.88373,-6.79705 1.30078,-10.36523 l 0.45703,-3.91407 -3.52343,-2.03906 c -8.73873,-5.05888 -18.60169,-9.75107 -29.36719,-13.97656 -3.58846,-1.40837 -7.27795,-2.76542 -11.0586,-4.06641 -4.58044,-1.57622 -9.87911,-3.24346 -9.97851,-3.14062 -0.0393,0.0405 -0.87535,1.22617 -1.85742,2.63476 -5.3898,7.73088 -13.62286,21.01467 -19.02539,30.69727 -0.69491,1.24547 -1.35027,2.39906 -1.84766,3.2539 -0.49727,0.85514 -0.83485,1.41094 -0.89453,1.4629 0,0 -0.002,0 -0.002,0 -0.034,0.0283 -0.12716,0.0409 -0.27343,0.0371 -0.14816,-0.004 -0.35074,-0.0242 -0.59766,-0.0586 -0.49281,-0.0681 -1.16566,-0.19384 -1.95312,-0.36914 -1.55365,-0.34571 -2.96837,-0.63942 -4.35157,-0.89648 0,0 -0.002,0 -0.002,0 -1.38312,-0.25705 -2.73536,-0.47741 -4.16406,-0.67579 0,0 -0.002,0 -0.002,0 -1.42882,-0.19834 -2.93457,-0.37527 -4.625,-0.54492 0,0 -0.002,0 -0.002,0 -1.69134,-0.1697 -3.5668,-0.33298 -5.73633,-0.5039 -8.65341,-0.68175 -11.84878,-0.7396 -18.72461,-0.34766 -1.24875,0.0713 -2.229,0.0751 -2.6875,0.0176 -0.15269,-0.0193 -0.2478,-0.0454 -0.27539,-0.0781 -0.0503,-0.0602 -0.29671,-0.66328 -0.65429,-1.58593 -0.35755,-0.92265 -0.82661,-2.1649 -1.31836,-3.50391 -0.4794,-1.30543 -0.98121,-2.64553 -1.50196,-4.00977 -1.5623,-4.09267 -3.28958,-8.39869 -5.05273,-12.61132 -1.76319,-4.21264 -3.56251,-8.33202 -5.26953,-12.05078 -0.56901,-1.2396 -1.12815,-2.43498 -1.67188,-3.57422 -1.01333,-2.12313 -1.87028,-3.89897 -1.90429,-3.94727 z m -66.08789,166.58984 a 32.499999,32.499999 0 0 1 32.5,32.5 32.499999,32.499999 0 0 1 -32.5,32.5 32.499999,32.499999 0 0 1 -32.5,-32.5 32.499999,32.499999 0 0 1 32.5,-32.5 z m 187.53125,19.125 c 1.72584,-0.0144 3.44952,0.0957 5.16797,0.33399 13.74738,1.90646 24.65803,10.93659 34.00781,22.44922 3.94509,4.86002 3.20547,11.99752 -1.65235,15.94531 -4.86173,3.94991 -12.00531,3.20916 -15.95312,-1.6543 -7.47523,-9.20447 -14.18173,-13.54324 -19.51758,-14.2832 -5.33585,-0.73996 -11.79745,1.02619 -21.67383,10.68164 -4.47883,4.37582 -11.65685,4.29278 -16.0332,-0.18555 -4.37583,-4.47881 -4.29277,-11.65685 0.18555,-16.0332 11.20323,-10.95265 23.38783,-17.15246 35.46875,-17.25391 z"
       transform="matrix(0.26458333,0,0,0.26458333,-171.78549,11.343979)" />
    <path
       id="white"
       style="fill:#fefefe;fill-opacity:1;stroke:none;stroke-width:0.999999px;stroke-linecap:butt;stroke-linejoin:miter;stroke-opacity:1"
       d="m 259.89648,303.84961 c -4.64871,0.10348 -8.99228,1.02126 -13.66601,2.84766 -10.29846,4.02434 -18.45634,11.96707 -22.67188,22.07226 -5.16601,12.38382 -4.01481,26.18561 3.13477,37.56055 5.81775,9.25602 15.39824,15.88405 26.24023,18.1543 2.95246,0.61827 8.44033,0.94066 11.54102,0.67968 11.70949,-0.98604 22.49415,-7.01868 29.4668,-16.48633 3.37839,-4.58728 5.93574,-10.34093 7.09765,-15.96093 0.64968,-3.14226 0.93857,-9.6707 0.56446,-12.78125 -0.60366,-5.01646 -2.51866,-10.96281 -4.88868,-15.1875 -6.70854,-11.95843 -18.7881,-19.69132 -32.44336,-20.76758 -0.79907,-0.063 -1.58605,-0.10426 -2.36132,-0.125 -0.67837,-0.0182 -1.34957,-0.0205 -2.01368,-0.006 z m 5.41602,16.40625 c 3.79623,0.0124 7.59134,0.85312 11.08984,2.65625 15.24051,6.59614 20.22511,28.07823 9.75782,40.85156 -6.45514,8.47854 -17.84648,12.26547 -28.13477,9.63477 -14.74639,-3.40747 -23.822,-20.33793 -18.88477,-34.52344 3.3899,-11.24053 14.78322,-18.65618 26.17188,-18.61914 z m 91.61133,14.94726 c -5.46845,0.0157 -10.61309,3.33379 -12.28125,8.06641 -0.32141,0.91189 -0.70314,5.01113 -2.01758,21.71094 l -1.62109,20.58594 0.41406,1.54687 c 1.02908,3.85837 3.91206,6.87657 8.12891,8.50781 1.87145,0.72397 6.08179,0.93407 8.24804,0.41211 3.36718,-0.81105 6.8146,-3.50566 8.36914,-6.54297 l 0.62305,-1.21679 1.70117,-20.69141 c 1.24409,-15.13818 1.65733,-21.02796 1.53711,-21.94336 -0.69891,-5.33922 -5.99128,-9.9205 -12.00586,-10.39453 -0.36651,-0.0289 -0.73114,-0.0421 -1.0957,-0.041 z m -187.73828,67.75196 -1.21094,14.5664 0.63672,0.16016 c 0.35149,0.0884 13.88063,2.48678 30.06445,5.33008 16.18379,2.8433 29.44106,5.1826 29.46094,5.19726 0.0227,0.0151 -0.0313,6.85894 -0.11328,15.21094 -0.0865,8.88586 -0.055,15.66248 0.0742,16.33399 0.44549,2.31246 2.05072,4.32888 4.20898,5.28711 0.62113,0.2759 11.82846,2.04661 36.8125,5.81836 19.75629,2.98255 36.45446,5.46429 37.10547,5.51562 2.59789,0.20485 5.05525,-1.0653 6.4375,-3.32812 0.81387,-1.3324 0.97028,-1.9301 3.92578,-14.87891 1.69367,-7.42031 3.16308,-13.81448 3.26367,-14.20899 l 0.18164,-0.71679 29.29297,2.30859 29.29297,2.3086 0.0684,0.73632 c 0.0378,0.4054 0.4858,6.95093 0.99609,14.54492 0.89045,13.25194 0.95183,13.86711 1.54688,15.31055 1.01292,2.45688 3.27196,4.09443 5.93945,4.30469 0.58374,0.0461 17.40622,0.20744 37.38281,0.35937 25.62926,0.19503 36.60241,0.20137 37.2793,0.0195 2.29708,-0.61236 4.19769,-2.34647 5.00195,-4.56641 0.23286,-0.64297 1.32439,-7.33135 2.63086,-16.12109 1.22797,-8.26164 2.24977,-15.02808 2.27149,-15.03711 0.0223,-0.008 20.29445,-3.37776 30.40039,-5.29493 10.36045,-1.96543 30.68841,-6.322 30.99023,-6.36328 l 0.54883,-0.0742 0.7793,-14.55273 -0.70117,0.0625 c -0.38514,0.034 -22.68302,4.44661 -34.07227,6.4043 -11.46177,1.97019 -33.82337,5.35255 -34.47266,5.375 -1.51758,0.0525 -3.73594,0.95251 -4.73046,1.91992 -1.03953,1.01132 -1.94477,2.66566 -2.21094,4.03906 -0.11951,0.61674 -1.17874,7.57119 -2.35156,15.45313 -1.17288,7.88197 -2.15982,14.35159 -2.19532,14.37695 -0.13901,0.0994 -58.92529,-0.42804 -59.01172,-0.5293 -0.0507,-0.0593 -0.51731,-6.36635 -1.0371,-14.01562 -0.51981,-7.64927 -1.01368,-14.28463 -1.09766,-14.74414 -0.21744,-1.18919 -1.27896,-2.96655 -2.33399,-3.90625 -1.86042,-1.65706 0.65974,-1.36866 -39.76367,-4.55469 -40.42344,-3.18603 -37.89124,-3.07553 -39.98828,-1.73047 -1.1892,0.76282 -2.51707,2.35175 -2.91797,3.49219 -0.21641,0.61417 -6.46025,27.53221 -6.49804,28.01172 -0.0163,0.20371 -2.65321,-0.17901 -30.38868,-4.375 h -0.002 c -15.419,-2.33435 -28.05998,-4.26483 -28.08984,-4.29102 -0.0265,-0.0265 0.008,-6.56898 0.082,-14.53906 0.0748,-7.97008 0.118,-15.02255 0.0957,-15.67188 -0.0518,-1.51933 -0.95237,-3.73574 -1.92383,-4.73437 -0.419,-0.43064 -1.26793,-1.06565 -1.88672,-1.41016 -1.04417,-0.58133 -3.52383,-1.0494 -34.50976,-6.50976 -18.36079,-3.23551 -33.80489,-5.975 -34.32227,-6.08789 z"
       transform="matrix(0.26458333,0,0,0.26458333,-171.78549,11.343979)"
       inkscape:label="white"
       sodipodi:nodetypes="cccsscsscsssccsccccssscccscccccsssccssccccsssscccccsssscsscsccccsssssssssssscccccccssscc" />
  </g>
</svg>
